<svg id="kity_svg_6" xmlns="http://www.w3.org/2000/svg" xmlns:xlink="http://www.w3.org/1999/xlink" version="1.1" width="990" height="1910" style="background: rgb(251, 251, 251); visibility: visible;" viewBox="0 0 990 1910"><defs id="kity_defs_7"><linearGradient id="kity_linearGradient_17" x1="0" y1="0" x2="0" y2="1"><stop id="kity_stop_18" offset="0" stop-color="rgb(255, 255, 255)"></stop><stop id="kity_stop_19" offset="1" stop-color="rgb(204, 204, 204)"></stop></linearGradient><marker id="kity_marker_2" orient="auto" refX="6" refY="0" viewBox="-7 -7 14 14" markerWidth="7" markerHeight="7" markerUnits="userSpaceOnUse"><path id="kity_path_3" fill="rgb(115, 161, 191)" stroke="none" d="M6,0A6,6,0,1,1,-6,0A6,6,0,1,1,6,0"></path></marker></defs><g id="kity_g_8"><g id="minder1" text-rendering="optimize-speed"><g id="minder_connect_group1"><path id="kity_path_31" fill="none" stroke="rgb(115, 161, 191)" stroke-width="1" d="M73.00001084059477,999.5000053867698A68.5,840,0,0,1,141.50001084059477,159.50000538676977"></path><path id="kity_path_33" fill="none" stroke="rgb(115, 161, 191)" stroke-width="1" d="M253.50001084059477,159.50000538676977C261.50001084059477,159.50000538676977,261.50001084059477,42.50000538676977,269.50001084059477,42.50000538676977"></path><path id="kity_path_35" fill="none" stroke="rgb(115, 161, 191)" stroke-width="1" d="M316.50001084059477,42.50000538676977C324.50001084059477,42.50000538676977,324.50001084059477,29.50000538676977,332.50001084059477,29.50000538676977"></path><path id="kity_path_37" fill="none" stroke="rgb(115, 161, 191)" stroke-width="1" d="M316.50001084059477,42.50000538676977C324.50001084059477,42.50000538676977,324.50001084059477,55.50000538676977,332.50001084059477,55.50000538676977"></path><path id="kity_path_39" fill="none" stroke="rgb(115, 161, 191)" stroke-width="1" d="M253.50001084059477,159.50000538676977C261.50001084059477,159.50000538676977,261.50001084059477,120.50000538676977,269.50001084059477,120.50000538676977"></path><path id="kity_path_41" fill="none" stroke="rgb(115, 161, 191)" stroke-width="1" d="M316.50001084059477,120.50000538676977C324.50001084059477,120.50000538676977,324.50001084059477,81.50000538676977,332.50001084059477,81.50000538676977"></path><path id="kity_path_43" fill="none" stroke="rgb(115, 161, 191)" stroke-width="1" d="M316.50001084059477,120.50000538676977C324.50001084059477,120.50000538676977,324.50001084059477,107.50000538676977,332.50001084059477,107.50000538676977"></path><path id="kity_path_45" fill="none" stroke="rgb(115, 161, 191)" stroke-width="1" d="M316.50001084059477,120.50000538676977C324.50001084059477,120.50000538676977,324.50001084059477,133.50000538676977,332.50001084059477,133.50000538676977"></path><path id="kity_path_47" fill="none" stroke="rgb(115, 161, 191)" stroke-width="1" d="M316.50001084059477,120.50000538676977C324.50001084059477,120.50000538676977,324.50001084059477,159.50000538676977,332.50001084059477,159.50000538676977"></path><path id="kity_path_49" fill="none" stroke="rgb(115, 161, 191)" stroke-width="1" d="M253.50001084059477,159.50000538676977C261.50001084059477,159.50000538676977,261.50001084059477,198.50000538676977,269.50001084059477,198.50000538676977"></path><path id="kity_path_51" fill="none" stroke="rgb(115, 161, 191)" stroke-width="1" d="M316.50001084059477,198.50000538676977C324.50001084059477,198.50000538676977,324.50001084059477,185.50000538676977,332.50001084059477,185.50000538676977"></path><path id="kity_path_53" fill="none" stroke="rgb(115, 161, 191)" stroke-width="1" d="M316.50001084059477,198.50000538676977C324.50001084059477,198.50000538676977,324.50001084059477,211.50000538676977,332.50001084059477,211.50000538676977"></path><path id="kity_path_55" fill="none" stroke="rgb(115, 161, 191)" stroke-width="1" d="M253.50001084059477,159.50000538676977C261.50001084059477,159.50000538676977,261.50001084059477,276.50000538676977,269.50001084059477,276.50000538676977"></path><path id="kity_path_57" fill="none" stroke="rgb(115, 161, 191)" stroke-width="1" d="M328.50001084059477,276.50000538676977C336.50001084059477,276.50000538676977,336.50001084059477,237.50000538676977,344.50001084059477,237.50000538676977"></path><path id="kity_path_59" fill="none" stroke="rgb(115, 161, 191)" stroke-width="1" d="M328.50001084059477,276.50000538676977C336.50001084059477,276.50000538676977,336.50001084059477,263.50000538676977,344.50001084059477,263.50000538676977"></path><path id="kity_path_61" fill="none" stroke="rgb(115, 161, 191)" stroke-width="1" d="M328.50001084059477,276.50000538676977C336.50001084059477,276.50000538676977,336.50001084059477,289.50000538676977,344.50001084059477,289.50000538676977"></path><path id="kity_path_63" fill="none" stroke="rgb(115, 161, 191)" stroke-width="1" d="M328.50001084059477,276.50000538676977C336.50001084059477,276.50000538676977,336.50001084059477,315.50000538676977,344.50001084059477,315.50000538676977"></path><path id="kity_path_65" fill="none" stroke="rgb(115, 161, 191)" stroke-width="1" d="M73.00001084059477,999.5000053867698A68.5,572,0,0,1,141.50001084059477,427.50000538676977"></path><path id="kity_path_67" fill="none" stroke="rgb(115, 161, 191)" stroke-width="1" d="M310.50001084059477,427.50000538676977C318.50001084059477,427.50000538676977,318.50001084059477,375.50000538676977,326.50001084059477,375.50000538676977"></path><path id="kity_path_69" fill="none" stroke="rgb(115, 161, 191)" stroke-width="1" d="M385.50001084059477,375.50000538676977C393.50001084059477,375.50000538676977,393.50001084059477,349.50000538676977,401.50001084059477,349.50000538676977"></path><path id="kity_path_71" fill="none" stroke="rgb(115, 161, 191)" stroke-width="1" d="M385.50001084059477,375.50000538676977C393.50001084059477,375.50000538676977,393.50001084059477,375.50000538676977,401.50001084059477,375.50000538676977"></path><path id="kity_path_73" fill="none" stroke="rgb(115, 161, 191)" stroke-width="1" d="M385.50001084059477,375.50000538676977C393.50001084059477,375.50000538676977,393.50001084059477,401.50000538676977,401.50001084059477,401.50000538676977"></path><path id="kity_path_75" fill="none" stroke="rgb(115, 161, 191)" stroke-width="1" d="M310.50001084059477,427.50000538676977C318.50001084059477,427.50000538676977,318.50001084059477,479.50000538676977,326.50001084059477,479.50000538676977"></path><path id="kity_path_77" fill="none" stroke="rgb(115, 161, 191)" stroke-width="1" d="M386.50001084059477,479.50000538676977C394.50001084059477,479.50000538676977,394.50001084059477,427.50000538676977,402.50001084059477,427.50000538676977"></path><path id="kity_path_79" fill="none" stroke="rgb(115, 161, 191)" stroke-width="1" d="M386.50001084059477,479.50000538676977C394.50001084059477,479.50000538676977,394.50001084059477,453.50000538676977,402.50001084059477,453.50000538676977"></path><path id="kity_path_81" fill="none" stroke="rgb(115, 161, 191)" stroke-width="1" d="M386.50001084059477,479.50000538676977C394.50001084059477,479.50000538676977,394.50001084059477,479.50000538676977,402.50001084059477,479.50000538676977"></path><path id="kity_path_83" fill="none" stroke="rgb(115, 161, 191)" stroke-width="1" d="M386.50001084059477,479.50000538676977C394.50001084059477,479.50000538676977,394.50001084059477,505.50000538676977,402.50001084059477,505.50000538676977"></path><path id="kity_path_85" fill="none" stroke="rgb(115, 161, 191)" stroke-width="1" d="M386.50001084059477,479.50000538676977C394.50001084059477,479.50000538676977,394.50001084059477,531.5000053867698,402.50001084059477,531.5000053867698"></path><path id="kity_path_87" fill="none" stroke="rgb(115, 161, 191)" stroke-width="1" d="M73.00001084059477,999.5000053867698A68.5,367,0,0,1,141.50001084059477,632.5000053867698"></path><path id="kity_path_89" fill="none" stroke="rgb(115, 161, 191)" stroke-width="1" d="M382.50001084059477,632.5000053867698C390.50001084059477,632.5000053867698,390.50001084059477,592.5000053867698,398.50001084059477,592.5000053867698"></path><path id="kity_path_91" fill="none" stroke="rgb(115, 161, 191)" stroke-width="1" d="M446.50001084059477,592.5000053867698C454.50001084059477,592.5000053867698,454.50001084059477,592.5000053867698,462.50001084059477,592.5000053867698"></path><path id="kity_path_93" fill="none" stroke="rgb(115, 161, 191)" stroke-width="1" d="M382.50001084059477,632.5000053867698C390.50001084059477,632.5000053867698,390.50001084059477,672.5000053867698,398.50001084059477,672.5000053867698"></path><path id="kity_path_95" fill="none" stroke="rgb(115, 161, 191)" stroke-width="1" d="M433.50001084059477,672.5000053867698C441.50001084059477,672.5000053867698,441.50001084059477,672.5000053867698,449.50001084059477,672.5000053867698"></path><path id="kity_path_97" fill="none" stroke="rgb(115, 161, 191)" stroke-width="1" d="M73.00001084059477,999.5000053867698A68.5,144,0,0,1,141.50001084059477,855.5000053867698"></path><path id="kity_path_99" fill="none" stroke="rgb(115, 161, 191)" stroke-width="1" d="M324.50001084059477,855.5000053867698C332.50001084059477,855.5000053867698,332.50001084059477,772.5000053867698,340.50001084059477,772.5000053867698"></path><path id="kity_path_101" fill="none" stroke="rgb(115, 161, 191)" stroke-width="1" d="M375.50001084059477,772.5000053867698C383.50001084059477,772.5000053867698,383.50001084059477,733.5000053867698,391.50001084059477,733.5000053867698"></path><path id="kity_path_103" fill="none" stroke="rgb(115, 161, 191)" stroke-width="1" d="M375.50001084059477,772.5000053867698C383.50001084059477,772.5000053867698,383.50001084059477,759.5000053867698,391.50001084059477,759.5000053867698"></path><path id="kity_path_105" fill="none" stroke="rgb(115, 161, 191)" stroke-width="1" d="M375.50001084059477,772.5000053867698C383.50001084059477,772.5000053867698,383.50001084059477,785.5000053867698,391.50001084059477,785.5000053867698"></path><path id="kity_path_107" fill="none" stroke="rgb(115, 161, 191)" stroke-width="1" d="M375.50001084059477,772.5000053867698C383.50001084059477,772.5000053867698,383.50001084059477,811.5000053867698,391.50001084059477,811.5000053867698"></path><path id="kity_path_109" fill="none" stroke="rgb(115, 161, 191)" stroke-width="1" d="M324.50001084059477,855.5000053867698C332.50001084059477,855.5000053867698,332.50001084059477,868.5000053867698,340.50001084059477,868.5000053867698"></path><path id="kity_path_111" fill="none" stroke="rgb(115, 161, 191)" stroke-width="1" d="M411.50001084059477,868.5000053867698C419.50001084059477,868.5000053867698,419.50001084059477,855.5000053867698,427.50001084059477,855.5000053867698"></path><path id="kity_path_113" fill="none" stroke="rgb(115, 161, 191)" stroke-width="1" d="M411.50001084059477,868.5000053867698C419.50001084059477,868.5000053867698,419.50001084059477,899.5000053867698,427.50001084059477,899.5000053867698"></path><path id="kity_path_115" fill="none" stroke="rgb(115, 161, 191)" stroke-width="1" d="M324.50001084059477,855.5000053867698C332.50001084059477,855.5000053867698,332.50001084059477,938.5000053867698,340.50001084059477,938.5000053867698"></path><path id="kity_path_117" fill="none" stroke="rgb(115, 161, 191)" stroke-width="1" d="M399.50001084059477,938.5000053867698C407.50001084059477,938.5000053867698,407.50001084059477,925.5000053867698,415.50001084059477,925.5000053867698"></path><path id="kity_path_119" fill="none" stroke="rgb(115, 161, 191)" stroke-width="1" d="M399.50001084059477,938.5000053867698C407.50001084059477,938.5000053867698,407.50001084059477,951.5000053867698,415.50001084059477,951.5000053867698"></path><path id="kity_path_121" fill="none" stroke="rgb(115, 161, 191)" stroke-width="1" d="M73.00001084059477,999.5000053867698A68.5,34,0,0,0,141.50001084059477,1033.5000053867698"></path><path id="kity_path_123" fill="none" stroke="rgb(115, 161, 191)" stroke-width="1" d="M239.50001084059477,1033.5000053867698C247.50001084059477,1033.5000053867698,247.50001084059477,985.5000053867698,255.50001084059477,985.5000053867698"></path><path id="kity_path_125" fill="none" stroke="rgb(115, 161, 191)" stroke-width="1" d="M239.50001084059477,1033.5000053867698C247.50001084059477,1033.5000053867698,247.50001084059477,1011.5000053867698,255.50001084059477,1011.5000053867698"></path><path id="kity_path_127" fill="none" stroke="rgb(115, 161, 191)" stroke-width="1" d="M239.50001084059477,1033.5000053867698C247.50001084059477,1033.5000053867698,247.50001084059477,1046.5000053867698,255.50001084059477,1046.5000053867698"></path><path id="kity_path_129" fill="none" stroke="rgb(115, 161, 191)" stroke-width="1" d="M239.50001084059477,1033.5000053867698C247.50001084059477,1033.5000053867698,247.50001084059477,1081.5000053867698,255.50001084059477,1081.5000053867698"></path><path id="kity_path_131" fill="none" stroke="rgb(115, 161, 191)" stroke-width="1" d="M73.00001084059477,999.5000053867698A68.5,255,0,0,0,141.50001084059477,1254.5000053867698"></path><path id="kity_path_133" fill="none" stroke="rgb(115, 161, 191)" stroke-width="1" d="M268.50001084059477,1254.5000053867698C276.50001084059477,1254.5000053867698,276.50001084059477,1115.5000053867698,284.50001084059477,1115.5000053867698"></path><path id="kity_path_135" fill="none" stroke="rgb(115, 161, 191)" stroke-width="1" d="M403.50001084059477,1115.5000053867698C411.50001084059477,1115.5000053867698,411.50001084059477,1115.5000053867698,419.50001084059477,1115.5000053867698"></path><path id="kity_path_137" fill="none" stroke="rgb(115, 161, 191)" stroke-width="1" d="M268.50001084059477,1254.5000053867698C276.50001084059477,1254.5000053867698,276.50001084059477,1180.5000053867698,284.50001084059477,1180.5000053867698"></path><path id="kity_path_139" fill="none" stroke="rgb(115, 161, 191)" stroke-width="1" d="M416.50001084059477,1180.5000053867698C424.50001084059477,1180.5000053867698,424.50001084059477,1141.5000053867698,432.50001084059477,1141.5000053867698"></path><path id="kity_path_141" fill="none" stroke="rgb(115, 161, 191)" stroke-width="1" d="M416.50001084059477,1180.5000053867698C424.50001084059477,1180.5000053867698,424.50001084059477,1180.5000053867698,432.50001084059477,1180.5000053867698"></path><path id="kity_path_143" fill="none" stroke="rgb(115, 161, 191)" stroke-width="1" d="M467.50001084059477,1180.5000053867698C475.50001084059477,1180.5000053867698,475.50001084059477,1167.5000053867698,483.50001084059477,1167.5000053867698"></path><path id="kity_path_145" fill="none" stroke="rgb(115, 161, 191)" stroke-width="1" d="M467.50001084059477,1180.5000053867698C475.50001084059477,1180.5000053867698,475.50001084059477,1193.5000053867698,483.50001084059477,1193.5000053867698"></path><path id="kity_path_147" fill="none" stroke="rgb(115, 161, 191)" stroke-width="1" d="M416.50001084059477,1180.5000053867698C424.50001084059477,1180.5000053867698,424.50001084059477,1219.5000053867698,432.50001084059477,1219.5000053867698"></path><path id="kity_path_149" fill="none" stroke="rgb(115, 161, 191)" stroke-width="1" d="M268.50001084059477,1254.5000053867698C276.50001084059477,1254.5000053867698,276.50001084059477,1254.5000053867698,284.50001084059477,1254.5000053867698"></path><path id="kity_path_151" fill="none" stroke="rgb(115, 161, 191)" stroke-width="1" d="M535.5000108405948,1254.5000053867698C543.5000108405948,1254.5000053867698,543.5000108405948,1254.5000053867698,551.5000108405948,1254.5000053867698"></path><path id="kity_path_153" fill="none" stroke="rgb(115, 161, 191)" stroke-width="1" d="M268.50001084059477,1254.5000053867698C276.50001084059477,1254.5000053867698,276.50001084059477,1289.5000053867698,284.50001084059477,1289.5000053867698"></path><path id="kity_path_155" fill="none" stroke="rgb(115, 161, 191)" stroke-width="1" d="M498.50001084059477,1289.5000053867698C506.50001084059477,1289.5000053867698,506.50001084059477,1289.5000053867698,514.5000108405948,1289.5000053867698"></path><path id="kity_path_157" fill="none" stroke="rgb(115, 161, 191)" stroke-width="1" d="M268.50001084059477,1254.5000053867698C276.50001084059477,1254.5000053867698,276.50001084059477,1328.5000053867698,284.50001084059477,1328.5000053867698"></path><path id="kity_path_159" fill="none" stroke="rgb(115, 161, 191)" stroke-width="1" d="M499.50001084059477,1328.5000053867698C507.50001084059477,1328.5000053867698,507.50001084059477,1315.5000053867698,515.5000108405948,1315.5000053867698"></path><path id="kity_path_161" fill="none" stroke="rgb(115, 161, 191)" stroke-width="1" d="M499.50001084059477,1328.5000053867698C507.50001084059477,1328.5000053867698,507.50001084059477,1341.5000053867698,515.5000108405948,1341.5000053867698"></path><path id="kity_path_163" fill="none" stroke="rgb(115, 161, 191)" stroke-width="1" d="M268.50001084059477,1254.5000053867698C276.50001084059477,1254.5000053867698,276.50001084059477,1393.5000053867698,284.50001084059477,1393.5000053867698"></path><path id="kity_path_165" fill="none" stroke="rgb(115, 161, 191)" stroke-width="1" d="M403.50001084059477,1393.5000053867698C411.50001084059477,1393.5000053867698,411.50001084059477,1367.5000053867698,419.50001084059477,1367.5000053867698"></path><path id="kity_path_167" fill="none" stroke="rgb(115, 161, 191)" stroke-width="1" d="M403.50001084059477,1393.5000053867698C411.50001084059477,1393.5000053867698,411.50001084059477,1393.5000053867698,419.50001084059477,1393.5000053867698"></path><path id="kity_path_169" fill="none" stroke="rgb(115, 161, 191)" stroke-width="1" d="M403.50001084059477,1393.5000053867698C411.50001084059477,1393.5000053867698,411.50001084059477,1419.5000053867698,419.50001084059477,1419.5000053867698"></path><path id="kity_path_171" fill="none" stroke="rgb(115, 161, 191)" stroke-width="1" d="M73.00001084059477,999.5000053867698A68.5,603,0,0,0,141.50001084059477,1602.5000053867698"></path><path id="kity_path_173" fill="none" stroke="rgb(115, 161, 191)" stroke-width="1" d="M283.50001084059477,1602.5000053867698C291.50001084059477,1602.5000053867698,291.50001084059477,1492.5000053867698,299.50001084059477,1492.5000053867698"></path><path id="kity_path_175" fill="none" stroke="rgb(115, 161, 191)" stroke-width="1" d="M319.50001084059477,1492.5000053867698C327.50001084059477,1492.5000053867698,327.50001084059477,1453.5000053867698,335.50001084059477,1453.5000053867698"></path><path id="kity_path_177" fill="none" stroke="rgb(115, 161, 191)" stroke-width="1" d="M319.50001084059477,1492.5000053867698C327.50001084059477,1492.5000053867698,327.50001084059477,1479.5000053867698,335.50001084059477,1479.5000053867698"></path><path id="kity_path_179" fill="none" stroke="rgb(115, 161, 191)" stroke-width="1" d="M319.50001084059477,1492.5000053867698C327.50001084059477,1492.5000053867698,327.50001084059477,1505.5000053867698,335.50001084059477,1505.5000053867698"></path><path id="kity_path_181" fill="none" stroke="rgb(115, 161, 191)" stroke-width="1" d="M319.50001084059477,1492.5000053867698C327.50001084059477,1492.5000053867698,327.50001084059477,1531.5000053867698,335.50001084059477,1531.5000053867698"></path><path id="kity_path_183" fill="none" stroke="rgb(115, 161, 191)" stroke-width="1" d="M283.50001084059477,1602.5000053867698C291.50001084059477,1602.5000053867698,291.50001084059477,1596.5000053867698,299.50001084059477,1596.5000053867698"></path><path id="kity_path_185" fill="none" stroke="rgb(115, 161, 191)" stroke-width="1" d="M326.50001084059477,1596.5000053867698C334.50001084059477,1596.5000053867698,334.50001084059477,1557.5000053867698,342.50001084059477,1557.5000053867698"></path><path id="kity_path_187" fill="none" stroke="rgb(115, 161, 191)" stroke-width="1" d="M326.50001084059477,1596.5000053867698C334.50001084059477,1596.5000053867698,334.50001084059477,1583.5000053867698,342.50001084059477,1583.5000053867698"></path><path id="kity_path_189" fill="none" stroke="rgb(115, 161, 191)" stroke-width="1" d="M326.50001084059477,1596.5000053867698C334.50001084059477,1596.5000053867698,334.50001084059477,1609.5000053867698,342.50001084059477,1609.5000053867698"></path><path id="kity_path_191" fill="none" stroke="rgb(115, 161, 191)" stroke-width="1" d="M326.50001084059477,1596.5000053867698C334.50001084059477,1596.5000053867698,334.50001084059477,1635.5000053867698,342.50001084059477,1635.5000053867698"></path><path id="kity_path_193" fill="none" stroke="rgb(115, 161, 191)" stroke-width="1" d="M283.50001084059477,1602.5000053867698C291.50001084059477,1602.5000053867698,291.50001084059477,1713.5000053867698,299.50001084059477,1713.5000053867698"></path><path id="kity_path_195" fill="none" stroke="rgb(115, 161, 191)" stroke-width="1" d="M347.50001084059477,1713.5000053867698C355.50001084059477,1713.5000053867698,355.50001084059477,1661.5000053867698,363.50001084059477,1661.5000053867698"></path><path id="kity_path_197" fill="none" stroke="rgb(115, 161, 191)" stroke-width="1" d="M347.50001084059477,1713.5000053867698C355.50001084059477,1713.5000053867698,355.50001084059477,1687.5000053867698,363.50001084059477,1687.5000053867698"></path><path id="kity_path_199" fill="none" stroke="rgb(115, 161, 191)" stroke-width="1" d="M347.50001084059477,1713.5000053867698C355.50001084059477,1713.5000053867698,355.50001084059477,1713.5000053867698,363.50001084059477,1713.5000053867698"></path><path id="kity_path_201" fill="none" stroke="rgb(115, 161, 191)" stroke-width="1" d="M347.50001084059477,1713.5000053867698C355.50001084059477,1713.5000053867698,355.50001084059477,1739.5000053867698,363.50001084059477,1739.5000053867698"></path><path id="kity_path_203" fill="none" stroke="rgb(115, 161, 191)" stroke-width="1" d="M347.50001084059477,1713.5000053867698C355.50001084059477,1713.5000053867698,355.50001084059477,1765.5000053867698,363.50001084059477,1765.5000053867698"></path><path id="kity_path_205" fill="none" stroke="rgb(115, 161, 191)" stroke-width="1" d="M73.00001084059477,999.5000053867698A68.5,841,0,0,0,141.50001084059477,1840.5000053867698"></path><path id="kity_path_207" fill="none" stroke="rgb(115, 161, 191)" stroke-width="1" d="M240.50001084059477,1840.5000053867698C248.50001084059477,1840.5000053867698,248.50001084059477,1804.5000053867698,256.50001084059477,1804.5000053867698"></path><path id="kity_path_209" fill="none" stroke="rgb(115, 161, 191)" stroke-width="1" d="M240.50001084059477,1840.5000053867698C248.50001084059477,1840.5000053867698,248.50001084059477,1840.5000053867698,256.50001084059477,1840.5000053867698"></path><path id="kity_path_211" fill="none" stroke="rgb(115, 161, 191)" stroke-width="1" d="M240.50001084059477,1840.5000053867698C248.50001084059477,1840.5000053867698,248.50001084059477,1876.5000053867698,256.50001084059477,1876.5000053867698"></path></g><g id="minder_node1"><path id="node_outline1" fill="rgb(115, 161, 191)" stroke="rgb(57, 80, 96)" d="M25.50001084059477,985.5000053867698h95a5,5,0,0,1,5,5v18a5,5,0,0,1,-5,5h-95a5,5,0,0,1,-5,-5v-18a5,5,0,0,1,5,-5z" stroke-width="3"></path><g id="node_text1" fill="white"><text id="kity_text_22" text-rendering="inherit" font-size="16" dy=".8em" y="989.100005351007" x="32.50001084059477">面试经验谈</text></g></g><g id="kity_g_12"><path id="kity_path_13" fill="none" stroke="none" d="M32.50001084059477,999.5000053867698h0v0h0z"></path></g><g id="kity_g_14"><path id="kity_path_15" fill="none" stroke="none" d="M32.50001084059477,999.5000053867698h0v0h0z"></path><path id="kity_path_16" fill="none" stroke="none"></path></g><g id="minder_node2"><g id="node_expander17" style="cursor: pointer;"><path id="kity_path_553" fill="white" stroke="gray" d="M142.50001239031553,159.49999286979437A6,6,0,1,1,130.50001239031553,159.49999286979437A6,6,0,1,1,142.50001239031553,159.49999286979437"></path><path id="kity_path_554" fill="none" stroke="gray" d="M132.00001239031553,159.49999286979437L141.00001239031553,159.49999286979437"></path></g><path id="node_outline18" fill="rgb(238, 243, 246)" stroke="rgb(115, 161, 191)" d="M146.50001279264688,146.49999286979437h104a3,3,0,0,1,3,3v20a3,3,0,0,1,-3,3h-104a3,3,0,0,1,-3,-3v-20a3,3,0,0,1,3,-3z" stroke-width="1"></path><g id="node_text18" fill="black"><text id="kity_text_245" text-rendering="inherit" font-size="14" dy=".8em" y="150.39999283850193" x="163.50001279264688">面试考察点</text></g></g><g id="minder_node3"><g id="node_expander3" style="cursor: pointer;"><path id="kity_path_511" fill="white" stroke="gray" d="M269.500014282763,42.49999112635851A6,6,0,1,1,257.500014282763,42.49999112635851A6,6,0,1,1,269.500014282763,42.49999112635851"></path><path id="kity_path_512" fill="none" stroke="gray" d="M259.000014282763,42.49999112635851L268.000014282763,42.49999112635851"></path></g><path id="node_outline4" fill="none" stroke="none" d="M274.5000144466758,33.49999112635851h37a5,5,0,0,1,5,5v8a5,5,0,0,1,-5,5h-37a5,5,0,0,1,-5,-5v-8a5,5,0,0,1,5,-5z"></path><g id="node_text4" fill="black"><text id="kity_text_217" text-rendering="inherit" font-size="12" dy=".8em" y="34.69999109953642" x="274.5000144466758">基础面</text></g></g><g id="minder_node4"><g id="node_expander1" display="none" style="cursor: pointer;"><path id="kity_path_505" fill="white" stroke="gray" d="M332.50001522153616,29.499990932643414A6,6,0,1,1,320.50001522153616,29.499990932643414A6,6,0,1,1,332.50001522153616,29.499990932643414"></path><path id="kity_path_506" fill="none" stroke="gray"></path></g><path id="node_outline2" fill="none" stroke="none" d="M337.50001538544893,20.499990932643414h61a5,5,0,0,1,5,5v8a5,5,0,0,1,-5,5h-61a5,5,0,0,1,-5,-5v-8a5,5,0,0,1,5,-5z"></path><g id="node_text2" fill="black"><text id="kity_text_213" text-rendering="inherit" font-size="12" dy=".8em" y="21.699990905821323" x="337.50001538544893">基础技术点</text></g></g><g id="minder_node5"><g id="node_expander2" display="none" style="cursor: pointer;"><path id="kity_path_508" fill="white" stroke="gray" d="M332.50001522153616,55.499991320073605A6,6,0,1,1,320.50001522153616,55.499991320073605A6,6,0,1,1,332.50001522153616,55.499991320073605"></path><path id="kity_path_509" fill="none" stroke="gray"></path></g><path id="node_outline3" fill="none" stroke="none" d="M337.50001538544893,46.499991320073605h50a5,5,0,0,1,5,5v8a5,5,0,0,1,-5,5h-50a5,5,0,0,1,-5,-5v-8a5,5,0,0,1,5,-5z"></path><g id="node_text3" fill="black"><text id="kity_text_215" text-rendering="inherit" font-size="12" dy=".8em" y="47.699991293251514" x="337.50001538544893">库和框架</text></g></g><g id="minder_node6"><g id="node_expander8" style="cursor: pointer;"><path id="kity_path_526" fill="white" stroke="gray" d="M269.500014282763,120.49999228864908A6,6,0,1,1,257.500014282763,120.49999228864908A6,6,0,1,1,269.500014282763,120.49999228864908"></path><path id="kity_path_527" fill="none" stroke="gray" d="M259.000014282763,120.49999228864908L268.000014282763,120.49999228864908"></path></g><path id="node_outline9" fill="none" stroke="none" d="M274.5000144466758,111.49999228864908h37a5,5,0,0,1,5,5v8a5,5,0,0,1,-5,5h-37a5,5,0,0,1,-5,-5v-8a5,5,0,0,1,5,-5z"></path><g id="node_text9" fill="black"><text id="kity_text_227" text-rendering="inherit" font-size="12" dy=".8em" y="112.69999226182699" x="274.5000144466758">经验面</text></g></g><g id="minder_node7"><g id="node_expander4" display="none" style="cursor: pointer;"><path id="kity_path_514" fill="white" stroke="gray" d="M332.50001522153616,81.4999917075038A6,6,0,1,1,320.50001522153616,81.4999917075038A6,6,0,1,1,332.50001522153616,81.4999917075038"></path><path id="kity_path_515" fill="none" stroke="gray"></path></g><path id="node_outline5" fill="none" stroke="none" d="M337.50001538544893,72.4999917075038h241a5,5,0,0,1,5,5v8a5,5,0,0,1,-5,5h-241a5,5,0,0,1,-5,-5v-8a5,5,0,0,1,5,-5z"></path><g id="node_text5" fill="black"><text id="kity_text_219" text-rendering="inherit" font-size="12" dy=".8em" y="73.6999916806817" x="337.50001538544893">做过什么项目，项目中解决了什么核心问题？</text></g></g><g id="minder_node8"><g id="node_expander5" display="none" style="cursor: pointer;"><path id="kity_path_517" fill="white" stroke="gray" d="M332.50001522153616,107.49999209493399A6,6,0,1,1,320.50001522153616,107.49999209493399A6,6,0,1,1,332.50001522153616,107.49999209493399"></path><path id="kity_path_518" fill="none" stroke="gray"></path></g><path id="node_outline6" fill="none" stroke="none" d="M337.50001538544893,98.49999209493399h293a5,5,0,0,1,5,5v8a5,5,0,0,1,-5,5h-293a5,5,0,0,1,-5,-5v-8a5,5,0,0,1,5,-5z"></path><g id="node_text6" fill="black"><text id="kity_text_221" text-rendering="inherit" font-size="12" dy=".8em" y="99.6999920681119" x="337.50001538544893">项目开发流程，前后端多个角色间如何配合，gitflow等</text></g></g><g id="minder_node9"><g id="node_expander6" display="none" style="cursor: pointer;"><path id="kity_path_520" fill="white" stroke="gray" d="M332.50001522153616,133.49999248236418A6,6,0,1,1,320.50001522153616,133.49999248236418A6,6,0,1,1,332.50001522153616,133.49999248236418"></path><path id="kity_path_521" fill="none" stroke="gray"></path></g><path id="node_outline7" fill="none" stroke="none" d="M337.50001538544893,124.49999248236418h108a5,5,0,0,1,5,5v8a5,5,0,0,1,-5,5h-108a5,5,0,0,1,-5,-5v-8a5,5,0,0,1,5,-5z"></path><g id="node_text7" fill="black"><text id="kity_text_223" text-rendering="inherit" font-size="12" dy=".8em" y="125.69999245554209" x="337.50001538544893">多人如何合作开发？</text></g></g><g id="minder_node10"><g id="node_expander7" display="none" style="cursor: pointer;"><path id="kity_path_523" fill="white" stroke="gray" d="M332.50001522153616,159.49999286979437A6,6,0,1,1,320.50001522153616,159.49999286979437A6,6,0,1,1,332.50001522153616,159.49999286979437"></path><path id="kity_path_524" fill="none" stroke="gray"></path></g><path id="node_outline8" fill="none" stroke="none" d="M337.50001538544893,150.49999286979437h339a5,5,0,0,1,5,5v8a5,5,0,0,1,-5,5h-339a5,5,0,0,1,-5,-5v-8a5,5,0,0,1,5,-5z"></path><g id="node_text8" fill="black"><text id="kity_text_225" text-rendering="inherit" font-size="12" dy=".8em" y="151.69999284297228" x="337.50001538544893">针对你的工作做过的任何思考，项目/团队/自身 各方面都可以。</text></g></g><g id="minder_node11"><g id="node_expander11" style="cursor: pointer;"><path id="kity_path_535" fill="white" stroke="gray" d="M269.500014282763,198.49999345093966A6,6,0,1,1,257.500014282763,198.49999345093966A6,6,0,1,1,269.500014282763,198.49999345093966"></path><path id="kity_path_536" fill="none" stroke="gray" d="M259.000014282763,198.49999345093966L268.000014282763,198.49999345093966"></path></g><path id="node_outline12" fill="none" stroke="none" d="M274.5000144466758,189.49999345093966h37a5,5,0,0,1,5,5v8a5,5,0,0,1,-5,5h-37a5,5,0,0,1,-5,-5v-8a5,5,0,0,1,5,-5z"></path><g id="node_text12" fill="black"><text id="kity_text_233" text-rendering="inherit" font-size="12" dy=".8em" y="190.69999342411757" x="274.5000144466758">思路面</text></g></g><g id="minder_node12"><g id="node_expander9" display="none" style="cursor: pointer;"><path id="kity_path_529" fill="white" stroke="gray" d="M332.50001522153616,185.49999325722456A6,6,0,1,1,320.50001522153616,185.49999325722456A6,6,0,1,1,332.50001522153616,185.49999325722456"></path><path id="kity_path_530" fill="none" stroke="gray"></path></g><path id="node_outline10" fill="none" stroke="none" d="M337.50001538544893,176.49999325722456h85a5,5,0,0,1,5,5v8a5,5,0,0,1,-5,5h-85a5,5,0,0,1,-5,-5v-8a5,5,0,0,1,5,-5z"></path><g id="node_text10" fill="black"><text id="kity_text_229" text-rendering="inherit" font-size="12" dy=".8em" y="177.69999323040247" x="337.50001538544893">框架适用的场景</text></g></g><g id="minder_node13"><g id="node_expander10" display="none" style="cursor: pointer;"><path id="kity_path_532" fill="white" stroke="gray" d="M332.50001522153616,211.49999364465475A6,6,0,1,1,320.50001522153616,211.49999364465475A6,6,0,1,1,332.50001522153616,211.49999364465475"></path><path id="kity_path_533" fill="none" stroke="gray"></path></g><path id="node_outline11" fill="none" stroke="none" d="M337.50001538544893,202.49999364465475h157a5,5,0,0,1,5,5v8a5,5,0,0,1,-5,5h-157a5,5,0,0,1,-5,-5v-8a5,5,0,0,1,5,-5z"></path><g id="node_text11" fill="black"><text id="kity_text_231" text-rendering="inherit" font-size="12" dy=".8em" y="203.69999361783266" x="337.50001538544893">设计某个技术场景的解决方案</text></g></g><g id="minder_node14"><g id="node_expander16" style="cursor: pointer;"><path id="kity_path_550" fill="white" stroke="gray" d="M269.500014282763,276.49999461323023A6,6,0,1,1,257.500014282763,276.49999461323023A6,6,0,1,1,269.500014282763,276.49999461323023"></path><path id="kity_path_551" fill="none" stroke="gray" d="M259.000014282763,276.49999461323023L268.000014282763,276.49999461323023"></path></g><path id="node_outline17" fill="none" stroke="none" d="M274.5000144466758,267.49999461323023h49a5,5,0,0,1,5,5v8a5,5,0,0,1,-5,5h-49a5,5,0,0,1,-5,-5v-8a5,5,0,0,1,5,-5z"></path><g id="node_text17" fill="black"><text id="kity_text_243" text-rendering="inherit" font-size="12" dy=".8em" y="268.69999458640814" x="274.5000144466758">面试轮数</text></g></g><g id="minder_node15"><g id="node_expander12" display="none" style="cursor: pointer;"><path id="kity_path_538" fill="white" stroke="gray" d="M344.5000154003501,237.49999403208494A6,6,0,1,1,332.5000154003501,237.49999403208494A6,6,0,1,1,344.5000154003501,237.49999403208494"></path><path id="kity_path_539" fill="none" stroke="gray"></path></g><path id="node_outline13" fill="none" stroke="none" d="M349.50001556426287,228.49999403208494h208a5,5,0,0,1,5,5v8a5,5,0,0,1,-5,5h-208a5,5,0,0,1,-5,-5v-8a5,5,0,0,1,5,-5z"></path><g id="node_text13" fill="black"><text id="kity_text_235" text-rendering="inherit" font-size="12" dy=".8em" y="229.69999400526285" x="349.50001556426287">第一轮 直接老大面，主要关注综合能力</text></g></g><g id="minder_node16"><g id="node_expander13" display="none" style="cursor: pointer;"><path id="kity_path_541" fill="white" stroke="gray" d="M344.5000154003501,263.49999441951513A6,6,0,1,1,332.5000154003501,263.49999441951513A6,6,0,1,1,344.5000154003501,263.49999441951513"></path><path id="kity_path_542" fill="none" stroke="gray"></path></g><path id="node_outline14" fill="none" stroke="none" d="M349.50001556426287,254.49999441951513h245a5,5,0,0,1,5,5v8a5,5,0,0,1,-5,5h-245a5,5,0,0,1,-5,-5v-8a5,5,0,0,1,5,-5z"></path><g id="node_text14" fill="black"><text id="kity_text_237" text-rendering="inherit" font-size="12" dy=".8em" y="255.69999439269304" x="349.50001556426287">第二轮 技术总监面，关注算法思路和架构思路</text></g></g><g id="minder_node17"><g id="node_expander14" display="none" style="cursor: pointer;"><path id="kity_path_544" fill="white" stroke="gray" d="M344.5000154003501,289.4999948069453A6,6,0,1,1,332.5000154003501,289.4999948069453A6,6,0,1,1,344.5000154003501,289.4999948069453"></path><path id="kity_path_545" fill="none" stroke="gray"></path></g><path id="node_outline15" fill="none" stroke="none" d="M349.50001556426287,280.4999948069453h281a5,5,0,0,1,5,5v8a5,5,0,0,1,-5,5h-281a5,5,0,0,1,-5,-5v-8a5,5,0,0,1,5,-5z"></path><g id="node_text15" fill="black"><text id="kity_text_239" text-rendering="inherit" font-size="12" dy=".8em" y="281.69999478012323" x="349.50001556426287">第三轮 CTO面，和总监差不多，不过会习惯给你压力</text></g></g><g id="minder_node18"><g id="node_expander15" display="none" style="cursor: pointer;"><path id="kity_path_547" fill="white" stroke="gray" d="M344.5000154003501,315.4999951943755A6,6,0,1,1,332.5000154003501,315.4999951943755A6,6,0,1,1,344.5000154003501,315.4999951943755"></path><path id="kity_path_548" fill="none" stroke="gray"></path></g><path id="node_outline16" fill="none" stroke="none" d="M349.50001556426287,306.4999951943755h322a5,5,0,0,1,5,5v8a5,5,0,0,1,-5,5h-322a5,5,0,0,1,-5,-5v-8a5,5,0,0,1,5,-5z"></path><g id="node_text16" fill="black"><text id="kity_text_241" text-rendering="inherit" font-size="12" dy=".8em" y="307.6999951675534" x="349.50001556426287">第四轮 HR面，给你讲讲公司的好，了解你的性格和做事方式</text></g></g><g id="minder_node19"><g id="node_expander28" style="cursor: pointer;"><path id="kity_path_586" fill="white" stroke="gray" d="M142.50001239031553,427.49999686330557A6,6,0,1,1,130.50001239031553,427.49999686330557A6,6,0,1,1,142.50001239031553,427.49999686330557"></path><path id="kity_path_587" fill="none" stroke="gray" d="M132.00001239031553,427.49999686330557L141.00001239031553,427.49999686330557"></path></g><path id="node_outline29" fill="rgb(238, 243, 246)" stroke="rgb(115, 161, 191)" d="M146.50001279264688,414.49999686330557h161a3,3,0,0,1,3,3v20a3,3,0,0,1,-3,3h-161a3,3,0,0,1,-3,-3v-20a3,3,0,0,1,3,-3z" stroke-width="1"></path><g id="node_text29" fill="black"><text id="kity_text_267" text-rendering="inherit" font-size="14" dy=".8em" y="418.39999683201313" x="163.50001279264688">什么是优秀工程师？</text></g></g><g id="minder_node20"><g id="node_expander21" style="cursor: pointer;"><path id="kity_path_565" fill="white" stroke="gray" d="M326.5000151321292,375.4999960884452A6,6,0,1,1,314.5000151321292,375.4999960884452A6,6,0,1,1,326.5000151321292,375.4999960884452"></path><path id="kity_path_566" fill="none" stroke="gray" d="M316.0000151321292,375.4999960884452L325.0000151321292,375.4999960884452"></path></g><path id="node_outline22" fill="none" stroke="none" d="M331.50001529604197,366.4999960884452h49a5,5,0,0,1,5,5v8a5,5,0,0,1,-5,5h-49a5,5,0,0,1,-5,-5v-8a5,5,0,0,1,5,-5z"></path><g id="node_text22" fill="black"><text id="kity_text_253" text-rendering="inherit" font-size="12" dy=".8em" y="367.6999960616231" x="331.50001529604197">持续成长</text></g></g><g id="minder_node21"><g id="node_expander18" display="none" style="cursor: pointer;"><path id="kity_path_556" fill="white" stroke="gray" d="M401.5000162497163,349.499995701015A6,6,0,1,1,389.5000162497163,349.499995701015A6,6,0,1,1,401.5000162497163,349.499995701015"></path><path id="kity_path_557" fill="none" stroke="gray"></path></g><path id="node_outline19" fill="none" stroke="none" d="M406.50001641362906,340.499995701015h38a5,5,0,0,1,5,5v8a5,5,0,0,1,-5,5h-38a5,5,0,0,1,-5,-5v-8a5,5,0,0,1,5,-5z"></path><g id="node_text19" fill="black"><text id="kity_text_247" text-rendering="inherit" font-size="12" dy=".8em" y="341.6999956741929" x="406.50001641362906">好奇心</text></g></g><g id="minder_node22"><g id="node_expander19" display="none" style="cursor: pointer;"><path id="kity_path_559" fill="white" stroke="gray" d="M401.5000162497163,375.4999960884452A6,6,0,1,1,389.5000162497163,375.4999960884452A6,6,0,1,1,401.5000162497163,375.4999960884452"></path><path id="kity_path_560" fill="none" stroke="gray"></path></g><path id="node_outline20" fill="none" stroke="none" d="M406.50001641362906,366.4999960884452h48a5,5,0,0,1,5,5v8a5,5,0,0,1,-5,5h-48a5,5,0,0,1,-5,-5v-8a5,5,0,0,1,5,-5z"></path><g id="node_text20" fill="black"><text id="kity_text_249" text-rendering="inherit" font-size="12" dy=".8em" y="367.6999960616231" x="406.50001641362906">学习能力</text></g></g><g id="minder_node23"><g id="node_expander20" display="none" style="cursor: pointer;"><path id="kity_path_562" fill="white" stroke="gray" d="M401.5000162497163,401.4999964758754A6,6,0,1,1,389.5000162497163,401.4999964758754A6,6,0,1,1,401.5000162497163,401.4999964758754"></path><path id="kity_path_563" fill="none" stroke="gray"></path></g><path id="node_outline21" fill="none" stroke="none" d="M406.50001641362906,392.4999964758754h145a5,5,0,0,1,5,5v8a5,5,0,0,1,-5,5h-145a5,5,0,0,1,-5,-5v-8a5,5,0,0,1,5,-5z"></path><g id="node_text21" fill="black"><text id="kity_text_251" text-rendering="inherit" font-size="12" dy=".8em" y="393.6999964490533" x="406.50001641362906">分析解决问题的方式和能力</text></g></g><g id="minder_node24"><g id="node_expander27" style="cursor: pointer;"><path id="kity_path_583" fill="white" stroke="gray" d="M326.5000151321292,479.49999763816595A6,6,0,1,1,314.5000151321292,479.49999763816595A6,6,0,1,1,326.5000151321292,479.49999763816595"></path><path id="kity_path_584" fill="none" stroke="gray" d="M316.0000151321292,479.49999763816595L325.0000151321292,479.49999763816595"></path></g><path id="node_outline28" fill="none" stroke="none" d="M331.50001529604197,470.49999763816595h50a5,5,0,0,1,5,5v8a5,5,0,0,1,-5,5h-50a5,5,0,0,1,-5,-5v-8a5,5,0,0,1,5,-5z"></path><g id="node_text28" fill="black"><text id="kity_text_265" text-rendering="inherit" font-size="12" dy=".8em" y="471.69999761134386" x="331.50001529604197">具体表现</text></g></g><g id="minder_node25"><g id="node_expander22" display="none" style="cursor: pointer;"><path id="kity_path_568" fill="white" stroke="gray" d="M402.50001626461744,427.49999686330557A6,6,0,1,1,390.50001626461744,427.49999686330557A6,6,0,1,1,402.50001626461744,427.49999686330557"></path><path id="kity_path_569" fill="none" stroke="gray"></path></g><path id="node_outline23" fill="none" stroke="none" d="M407.5000164285302,418.49999686330557h397a5,5,0,0,1,5,5v8a5,5,0,0,1,-5,5h-397a5,5,0,0,1,-5,-5v-8a5,5,0,0,1,5,-5z"></path><g id="node_text23" fill="black"><text id="kity_text_255" text-rendering="inherit" font-size="12" dy=".8em" y="419.6999968364835" x="407.5000164285302">利用技术解决生活中遇到的问题，还是只是上班写业务代码糊口（好奇心）</text></g></g><g id="minder_node26"><g id="node_expander23" display="none" style="cursor: pointer;"><path id="kity_path_571" fill="white" stroke="gray" d="M402.50001626461744,453.49999725073576A6,6,0,1,1,390.50001626461744,453.49999725073576A6,6,0,1,1,402.50001626461744,453.49999725073576"></path><path id="kity_path_572" fill="none" stroke="gray"></path></g><path id="node_outline24" fill="none" stroke="none" d="M407.5000164285302,444.49999725073576h205a5,5,0,0,1,5,5v8a5,5,0,0,1,-5,5h-205a5,5,0,0,1,-5,-5v-8a5,5,0,0,1,5,-5z"></path><g id="node_text24" fill="black"><text id="kity_text_257" text-rendering="inherit" font-size="12" dy=".8em" y="445.69999722391367" x="407.5000164285302">有自己的小作品（好奇心，学习方法）</text></g></g><g id="minder_node27"><g id="node_expander24" display="none" style="cursor: pointer;"><path id="kity_path_574" fill="white" stroke="gray" d="M402.50001626461744,479.49999763816595A6,6,0,1,1,390.50001626461744,479.49999763816595A6,6,0,1,1,402.50001626461744,479.49999763816595"></path><path id="kity_path_575" fill="none" stroke="gray"></path></g><path id="node_outline25" fill="none" stroke="none" d="M407.5000164285302,470.49999763816595h325a5,5,0,0,1,5,5v8a5,5,0,0,1,-5,5h-325a5,5,0,0,1,-5,-5v-8a5,5,0,0,1,5,-5z"></path><g id="node_text25" fill="black"><text id="kity_text_259" text-rendering="inherit" font-size="12" dy=".8em" y="471.69999761134386" x="407.5000164285302">有自己的专栏或者博客，记录学习或者项目总结（做事方式）</text></g></g><g id="minder_node28"><g id="node_expander25" display="none" style="cursor: pointer;"><path id="kity_path_577" fill="white" stroke="gray" d="M402.50001626461744,505.49999802559614A6,6,0,1,1,390.50001626461744,505.49999802559614A6,6,0,1,1,402.50001626461744,505.49999802559614"></path><path id="kity_path_578" fill="none" stroke="gray"></path></g><path id="node_outline26" fill="none" stroke="none" d="M407.5000164285302,496.49999802559614h397a5,5,0,0,1,5,5v8a5,5,0,0,1,-5,5h-397a5,5,0,0,1,-5,-5v-8a5,5,0,0,1,5,-5z"></path><g id="node_text26" fill="black"><text id="kity_text_261" text-rendering="inherit" font-size="12" dy=".8em" y="497.69999799877405" x="407.5000164285302">对新技术保持敏感，投入大量时间，关注开源社区（学习能力，做事态度）</text></g></g><g id="minder_node29"><g id="node_expander26" display="none" style="cursor: pointer;"><path id="kity_path_580" fill="white" stroke="gray" d="M402.50001626461744,531.4999984130263A6,6,0,1,1,390.50001626461744,531.4999984130263A6,6,0,1,1,402.50001626461744,531.4999984130263"></path><path id="kity_path_581" fill="none" stroke="gray"></path></g><path id="node_outline27" fill="none" stroke="none" d="M407.5000164285302,522.4999984130263h47a5,5,0,0,1,5,5v8a5,5,0,0,1,-5,5h-47a5,5,0,0,1,-5,-5v-8a5,5,0,0,1,5,-5z"></path><g id="node_text27" fill="black"><text id="kity_text_263" text-rendering="inherit" font-size="12" dy=".8em" y="523.6999983862042" x="407.5000164285302">子主题 5</text></g></g><g id="minder_node30"><g id="node_expander33" style="cursor: pointer;"><path id="kity_path_601" fill="white" stroke="gray" d="M142.50001239031553,632.4999999180436A6,6,0,1,1,130.50001239031553,632.4999999180436A6,6,0,1,1,142.50001239031553,632.4999999180436"></path><path id="kity_path_602" fill="none" stroke="gray" d="M132.00001239031553,632.4999999180436L141.00001239031553,632.4999999180436"></path></g><path id="node_outline34" fill="rgb(238, 243, 246)" stroke="rgb(115, 161, 191)" d="M146.50001279264688,619.4999999180436h233a3,3,0,0,1,3,3v20a3,3,0,0,1,-3,3h-233a3,3,0,0,1,-3,-3v-20a3,3,0,0,1,3,-3z" stroke-width="1"></path><g id="node_text34" fill="black"><text id="kity_text_283" text-rendering="inherit" font-size="14" dy=".8em" y="623.3999998867512" x="163.50001279264688">各岗位技术发展方向（从0到1）</text></g></g><g id="minder_node31"><g id="node_expander30" style="cursor: pointer;"><path id="kity_path_592" fill="white" stroke="gray" d="M398.5000162050128,592.4999993219972A6,6,0,1,1,386.5000162050128,592.4999993219972A6,6,0,1,1,398.5000162050128,592.4999993219972"></path><path id="kity_path_593" fill="none" stroke="gray" d="M388.0000162050128,592.4999993219972L397.0000162050128,592.4999993219972"></path></g><path id="node_outline31" fill="none" stroke="none" d="M403.50001636892557,583.4999993219972h38a5,5,0,0,1,5,5v8a5,5,0,0,1,-5,5h-38a5,5,0,0,1,-5,-5v-8a5,5,0,0,1,5,-5z"></path><g id="node_text31" fill="black"><text id="kity_text_274" text-rendering="inherit" font-size="12" dy=".8em" y="584.6999992951751" x="403.50001636892557">服务端</text></g></g><g id="minder_node32"><g id="node_expander29" display="none" style="cursor: pointer;"><path id="kity_path_589" fill="white" stroke="gray" d="M462.5000171586871,592.4999993219972A6,6,0,1,1,450.5000171586871,592.4999993219972A6,6,0,1,1,462.5000171586871,592.4999993219972"></path><path id="kity_path_590" fill="none" stroke="gray"></path></g><path id="node_outline30" fill="none" stroke="none" d="M467.5000173225999,556.4999993219972h316a5,5,0,0,1,5,5v62a5,5,0,0,1,-5,5h-316a5,5,0,0,1,-5,-5v-62a5,5,0,0,1,5,-5z"></path><g id="node_text30" fill="black"><text id="kity_text_269" text-rendering="inherit" font-size="12" dy=".8em" y="557.6999992951751" x="467.5000173225999">看基础语法和api-&gt;写demo-&gt;引入学习各种类库和框架-&gt;</text><text id="kity_text_270" text-rendering="inherit" font-size="12" dy=".8em" y="575.6999992951751" x="467.5000173225999">写复杂的业务-&gt;深入了解一些偏底层的机制-&gt;</text><text id="kity_text_271" text-rendering="inherit" font-size="12" dy=".8em" y="593.6999992951751" x="467.5000173225999">写一个真正的线上应用-&gt;运维错误捕获线上性能线上保障-&gt;</text><text id="kity_text_272" text-rendering="inherit" font-size="12" dy=".8em" y="611.6999992951751" x="467.5000173225999">工程化可持续发展多人开发-&gt;服务化-&gt;服务治理</text></g></g><g id="minder_node33"><g id="node_expander32" style="cursor: pointer;"><path id="kity_path_598" fill="white" stroke="gray" d="M398.5000162050128,672.5000005140901A6,6,0,1,1,386.5000162050128,672.5000005140901A6,6,0,1,1,398.5000162050128,672.5000005140901"></path><path id="kity_path_599" fill="none" stroke="gray" d="M388.0000162050128,672.5000005140901L397.0000162050128,672.5000005140901"></path></g><path id="node_outline33" fill="none" stroke="none" d="M403.50001636892557,663.5000005140901h25a5,5,0,0,1,5,5v8a5,5,0,0,1,-5,5h-25a5,5,0,0,1,-5,-5v-8a5,5,0,0,1,5,-5z"></path><g id="node_text33" fill="black"><text id="kity_text_281" text-rendering="inherit" font-size="12" dy=".8em" y="664.700000487268" x="403.50001636892557">前端</text></g></g><g id="minder_node34"><g id="node_expander31" display="none" style="cursor: pointer;"><path id="kity_path_595" fill="white" stroke="gray" d="M449.500016964972,672.5000005140901A6,6,0,1,1,437.500016964972,672.5000005140901A6,6,0,1,1,449.500016964972,672.5000005140901"></path><path id="kity_path_596" fill="none" stroke="gray"></path></g><path id="node_outline32" fill="none" stroke="none" d="M454.5000171288848,636.5000005140901h435a5,5,0,0,1,5,5v62a5,5,0,0,1,-5,5h-435a5,5,0,0,1,-5,-5v-62a5,5,0,0,1,5,-5z"></path><g id="node_text32" fill="black"><text id="kity_text_276" text-rendering="inherit" font-size="12" dy=".8em" y="637.700000487268" x="454.5000171288848">看犀牛书-&gt;边看边写-&gt; 模仿实现一些特效 -&gt; 学习流行的开发框架-&gt;</text><text id="kity_text_277" text-rendering="inherit" font-size="12" dy=".8em" y="655.700000487268" x="454.5000171288848">用框架开发小应用或者一些流行的系统的模仿 -&gt; 真实项目开发，积累开发经验 -&gt;</text><text id="kity_text_278" text-rendering="inherit" font-size="12" dy=".8em" y="673.700000487268" x="454.5000171288848">深入了解各种框架解决的核心问题 -&gt; 解决多人开发问题 ，工程化 -&gt;</text><text id="kity_text_279" text-rendering="inherit" font-size="12" dy=".8em" y="691.700000487268" x="454.5000171288848"> 深入js底层，了解各种框架的核心机制-&gt; 架构师</text></g></g><g id="minder_node35"><g id="node_expander45" style="cursor: pointer;"><path id="kity_path_637" fill="white" stroke="gray" d="M142.50001239031553,855.5000032410026A6,6,0,1,1,130.50001239031553,855.5000032410026A6,6,0,1,1,142.50001239031553,855.5000032410026"></path><path id="kity_path_638" fill="none" stroke="gray" d="M132.00001239031553,855.5000032410026L141.00001239031553,855.5000032410026"></path></g><path id="node_outline46" fill="rgb(238, 243, 246)" stroke="rgb(115, 161, 191)" d="M146.50001279264688,842.5000032410026h175a3,3,0,0,1,3,3v20a3,3,0,0,1,-3,3h-175a3,3,0,0,1,-3,-3v-20a3,3,0,0,1,3,-3z" stroke-width="1"></path><g id="node_text46" fill="black"><text id="kity_text_309" text-rendering="inherit" font-size="14" dy=".8em" y="846.4000032097101" x="163.50001279264688">谈谈我上次的应试经历</text></g></g><g id="minder_node36"><g id="node_expander38" style="cursor: pointer;"><path id="kity_path_616" fill="white" stroke="gray" d="M340.50001534074545,772.5000020042062A6,6,0,1,1,328.50001534074545,772.5000020042062A6,6,0,1,1,340.50001534074545,772.5000020042062"></path><path id="kity_path_617" fill="none" stroke="gray" d="M330.00001534074545,772.5000020042062L339.00001534074545,772.5000020042062"></path></g><path id="node_outline39" fill="none" stroke="none" d="M345.5000155046582,763.5000020042062h25a5,5,0,0,1,5,5v8a5,5,0,0,1,-5,5h-25a5,5,0,0,1,-5,-5v-8a5,5,0,0,1,5,-5z"></path><g id="node_text39" fill="black"><text id="kity_text_293" text-rendering="inherit" font-size="12" dy=".8em" y="764.7000019773841" x="345.5000155046582">简历</text></g></g><g id="minder_node37"><g id="node_expander34" display="none" style="cursor: pointer;"><path id="kity_path_604" fill="white" stroke="gray" d="M391.50001610070467,733.5000014230609A6,6,0,1,1,379.50001610070467,733.5000014230609A6,6,0,1,1,391.50001610070467,733.5000014230609"></path><path id="kity_path_605" fill="none" stroke="gray"></path></g><path id="node_outline35" fill="none" stroke="none" d="M396.50001626461744,724.5000014230609h157a5,5,0,0,1,5,5v8a5,5,0,0,1,-5,5h-157a5,5,0,0,1,-5,-5v-8a5,5,0,0,1,5,-5z"></path><g id="node_text35" fill="black"><text id="kity_text_285" text-rendering="inherit" font-size="12" dy=".8em" y="725.7000013962388" x="396.50001626461744">不会列举所有项目（太多了）</text></g></g><g id="minder_node38"><g id="node_expander35" display="none" style="cursor: pointer;"><path id="kity_path_607" fill="white" stroke="gray" d="M391.50001610070467,759.5000018104911A6,6,0,1,1,379.50001610070467,759.5000018104911A6,6,0,1,1,391.50001610070467,759.5000018104911"></path><path id="kity_path_608" fill="none" stroke="gray"></path></g><path id="node_outline36" fill="none" stroke="none" d="M396.50001626461744,750.5000018104911h192a5,5,0,0,1,5,5v8a5,5,0,0,1,-5,5h-192a5,5,0,0,1,-5,-5v-8a5,5,0,0,1,5,-5z"></path><g id="node_text36" fill="black"><text id="kity_text_287" text-rendering="inherit" font-size="12" dy=".8em" y="751.700001783669" x="396.50001626461744">强调特殊技能（管理，跨端，全栈）</text></g></g><g id="minder_node39"><g id="node_expander36" display="none" style="cursor: pointer;"><path id="kity_path_610" fill="white" stroke="gray" d="M391.50001610070467,785.5000021979213A6,6,0,1,1,379.50001610070467,785.5000021979213A6,6,0,1,1,391.50001610070467,785.5000021979213"></path><path id="kity_path_611" fill="none" stroke="gray"></path></g><path id="node_outline37" fill="none" stroke="none" d="M396.50001626461744,776.5000021979213h229a5,5,0,0,1,5,5v8a5,5,0,0,1,-5,5h-229a5,5,0,0,1,-5,-5v-8a5,5,0,0,1,5,-5z"></path><g id="node_text37" fill="black"><text id="kity_text_289" text-rendering="inherit" font-size="12" dy=".8em" y="777.7000021710992" x="396.50001626461744">近期做过的重要项目，核心解决了什么问题</text></g></g><g id="minder_node40"><g id="node_expander37" display="none" style="cursor: pointer;"><path id="kity_path_613" fill="white" stroke="gray" d="M391.50001610070467,811.5000025853515A6,6,0,1,1,379.50001610070467,811.5000025853515A6,6,0,1,1,391.50001610070467,811.5000025853515"></path><path id="kity_path_614" fill="none" stroke="gray"></path></g><path id="node_outline38" fill="none" stroke="none" d="M396.50001626461744,802.5000025853515h157a5,5,0,0,1,5,5v8a5,5,0,0,1,-5,5h-157a5,5,0,0,1,-5,-5v-8a5,5,0,0,1,5,-5z"></path><g id="node_text38" fill="black"><text id="kity_text_291" text-rendering="inherit" font-size="12" dy=".8em" y="803.7000025585294" x="396.50001626461744">附加：github和网站，app等</text></g></g><g id="minder_node41"><g id="node_expander41" style="cursor: pointer;"><path id="kity_path_625" fill="white" stroke="gray" d="M340.50001534074545,868.5000034347177A6,6,0,1,1,328.50001534074545,868.5000034347177A6,6,0,1,1,340.50001534074545,868.5000034347177"></path><path id="kity_path_626" fill="none" stroke="gray" d="M330.00001534074545,868.5000034347177L339.00001534074545,868.5000034347177"></path></g><path id="node_outline42" fill="none" stroke="none" d="M345.5000155046582,859.5000034347177h61a5,5,0,0,1,5,5v8a5,5,0,0,1,-5,5h-61a5,5,0,0,1,-5,-5v-8a5,5,0,0,1,5,-5z"></path><g id="node_text42" fill="black"><text id="kity_text_301" text-rendering="inherit" font-size="12" dy=".8em" y="860.7000034078956" x="345.5000155046582">面试前准备</text></g></g><g id="minder_node42"><g id="node_expander39" display="none" style="cursor: pointer;"><path id="kity_path_619" fill="white" stroke="gray" d="M427.5000166371465,855.5000032410026A6,6,0,1,1,415.5000166371465,855.5000032410026A6,6,0,1,1,427.5000166371465,855.5000032410026"></path><path id="kity_path_620" fill="none" stroke="gray"></path></g><path id="node_outline40" fill="none" stroke="none" d="M432.50001680105925,828.5000032410026h373a5,5,0,0,1,5,5v44a5,5,0,0,1,-5,5h-373a5,5,0,0,1,-5,-5v-44a5,5,0,0,1,5,-5z"></path><g id="node_text40" fill="black"><text id="kity_text_295" text-rendering="inherit" font-size="12" dy=".8em" y="829.7000032141805" x="432.50001680105925">将最近自己做过的几个比较重要的事情梳理下，</text><text id="kity_text_296" text-rendering="inherit" font-size="12" dy=".8em" y="847.7000032141805" x="432.50001680105925">能够清楚讲出整体架构和思考改进</text><text id="kity_text_297" text-rendering="inherit" font-size="12" dy=".8em" y="865.7000032141805" x="432.50001680105925">另外将前端界常问的一些问题复习一下，不必全面，但要有核心竞争力</text></g></g><g id="minder_node43"><g id="node_expander40" display="none" style="cursor: pointer;"><path id="kity_path_622" fill="white" stroke="gray" d="M427.5000166371465,899.5000038966537A6,6,0,1,1,415.5000166371465,899.5000038966537A6,6,0,1,1,427.5000166371465,899.5000038966537"></path><path id="kity_path_623" fill="none" stroke="gray"></path></g><path id="node_outline41" fill="none" stroke="none" d="M432.50001680105925,890.5000038966537h204a5,5,0,0,1,5,5v8a5,5,0,0,1,-5,5h-204a5,5,0,0,1,-5,-5v-8a5,5,0,0,1,5,-5z"></path><g id="node_text41" fill="black"><text id="kity_text_299" text-rendering="inherit" font-size="12" dy=".8em" y="891.7000038698316" x="432.50001680105925">准备一个重要问题：最后要问面试官的</text></g></g><g id="minder_node44"><g id="node_expander44" style="cursor: pointer;"><path id="kity_path_634" fill="white" stroke="gray" d="M340.50001534074545,938.5000044777989A6,6,0,1,1,328.50001534074545,938.5000044777989A6,6,0,1,1,340.50001534074545,938.5000044777989"></path><path id="kity_path_635" fill="none" stroke="gray" d="M330.00001534074545,938.5000044777989L339.00001534074545,938.5000044777989"></path></g><path id="node_outline45" fill="none" stroke="none" d="M345.5000155046582,929.5000044777989h49a5,5,0,0,1,5,5v8a5,5,0,0,1,-5,5h-49a5,5,0,0,1,-5,-5v-8a5,5,0,0,1,5,-5z"></path><g id="node_text45" fill="black"><text id="kity_text_307" text-rendering="inherit" font-size="12" dy=".8em" y="930.7000044509768" x="345.5000155046582">面试过程</text></g></g><g id="minder_node45"><g id="node_expander42" display="none" style="cursor: pointer;"><path id="kity_path_628" fill="white" stroke="gray" d="M415.50001645833254,925.5000042840838A6,6,0,1,1,403.50001645833254,925.5000042840838A6,6,0,1,1,415.50001645833254,925.5000042840838"></path><path id="kity_path_629" fill="none" stroke="gray"></path></g><path id="node_outline43" fill="none" stroke="none" d="M420.5000166222453,916.5000042840838h277a5,5,0,0,1,5,5v8a5,5,0,0,1,-5,5h-277a5,5,0,0,1,-5,-5v-8a5,5,0,0,1,5,-5z"></path><g id="node_text43" fill="black"><text id="kity_text_303" text-rendering="inherit" font-size="12" dy=".8em" y="917.7000042572618" x="420.5000166222453">冷静沉着，不要太多的猜测面试官的意图，就事论事</text></g></g><g id="minder_node46"><g id="node_expander43" display="none" style="cursor: pointer;"><path id="kity_path_631" fill="white" stroke="gray" d="M415.50001645833254,951.500004671514A6,6,0,1,1,403.50001645833254,951.500004671514A6,6,0,1,1,415.50001645833254,951.500004671514"></path><path id="kity_path_632" fill="none" stroke="gray"></path></g><path id="node_outline44" fill="none" stroke="none" d="M420.5000166222453,942.500004671514h252a5,5,0,0,1,5,5v8a5,5,0,0,1,-5,5h-252a5,5,0,0,1,-5,-5v-8a5,5,0,0,1,5,-5z"></path><g id="node_text44" fill="black"><text id="kity_text_305" text-rendering="inherit" font-size="12" dy=".8em" y="943.700004644692" x="420.5000166222453">掌握主动权，让面试官听你讲，而不是一直提问</text></g></g><g id="minder_node47"><g id="node_expander50" style="cursor: pointer;"><path id="kity_path_652" fill="white" stroke="gray" d="M142.50001239031553,1033.5000058934093A6,6,0,1,1,130.50001239031553,1033.5000058934093A6,6,0,1,1,142.50001239031553,1033.5000058934093"></path><path id="kity_path_653" fill="none" stroke="gray" d="M132.00001239031553,1033.5000058934093L141.00001239031553,1033.5000058934093"></path></g><path id="node_outline51" fill="rgb(238, 243, 246)" stroke="rgb(115, 161, 191)" d="M146.50001279264688,1020.5000058934093h90a3,3,0,0,1,3,3v20a3,3,0,0,1,-3,3h-90a3,3,0,0,1,-3,-3v-20a3,3,0,0,1,3,-3z" stroke-width="1"></path><g id="node_text51" fill="black"><text id="kity_text_320" text-rendering="inherit" font-size="14" dy=".8em" y="1024.4000058621168" x="163.50001279264688">面试技巧</text></g></g><g id="minder_node48"><g id="node_expander46" display="none" style="cursor: pointer;"><path id="kity_path_640" fill="white" stroke="gray" d="M255.50001407414675,985.5000051781535A6,6,0,1,1,243.50001407414675,985.5000051781535A6,6,0,1,1,255.50001407414675,985.5000051781535"></path><path id="kity_path_641" fill="none" stroke="gray"></path></g><path id="node_outline47" fill="none" stroke="none" d="M260.5000142380595,976.5000051781535h61a5,5,0,0,1,5,5v8a5,5,0,0,1,-5,5h-61a5,5,0,0,1,-5,-5v-8a5,5,0,0,1,5,-5z"></path><g id="node_text47" fill="black"><text id="kity_text_311" text-rendering="inherit" font-size="12" dy=".8em" y="977.7000051513314" x="260.5000142380595">掌握主动权</text></g></g><g id="minder_node49"><g id="node_expander47" display="none" style="cursor: pointer;"><path id="kity_path_643" fill="white" stroke="gray" d="M255.50001407414675,1011.5000055655837A6,6,0,1,1,243.50001407414675,1011.5000055655837A6,6,0,1,1,255.50001407414675,1011.5000055655837"></path><path id="kity_path_644" fill="none" stroke="gray"></path></g><path id="node_outline48" fill="none" stroke="none" d="M260.5000142380595,1002.5000055655837h146a5,5,0,0,1,5,5v8a5,5,0,0,1,-5,5h-146a5,5,0,0,1,-5,-5v-8a5,5,0,0,1,5,-5z"></path><g id="node_text48" fill="black"><text id="kity_text_313" text-rendering="inherit" font-size="12" dy=".8em" y="1003.7000055387616" x="260.5000142380595">梳理工作模式，自己的优势</text></g></g><g id="minder_node50"><g id="node_expander48" display="none" style="cursor: pointer;"><path id="kity_path_646" fill="white" stroke="gray" d="M255.50001407414675,1046.5000060871243A6,6,0,1,1,243.50001407414675,1046.5000060871243A6,6,0,1,1,255.50001407414675,1046.5000060871243"></path><path id="kity_path_647" fill="none" stroke="gray"></path></g><path id="node_outline49" fill="none" stroke="none" d="M260.5000142380595,1028.5000060871243h265a5,5,0,0,1,5,5v26a5,5,0,0,1,-5,5h-265a5,5,0,0,1,-5,-5v-26a5,5,0,0,1,5,-5z"></path><g id="node_text49" fill="black"><text id="kity_text_315" text-rendering="inherit" font-size="12" dy=".8em" y="1029.7000060603023" x="260.5000142380595">很多问题并没有标准答案，所以不要担心回答错了</text><text id="kity_text_316" text-rendering="inherit" font-size="12" dy=".8em" y="1047.7000060603023" x="260.5000142380595">考官的考察点可能并不是问题本身</text></g></g><g id="minder_node51"><g id="node_expander49" display="none" style="cursor: pointer;"><path id="kity_path_649" fill="white" stroke="gray" d="M255.50001407414675,1081.500006608665A6,6,0,1,1,243.50001407414675,1081.500006608665A6,6,0,1,1,255.50001407414675,1081.500006608665"></path><path id="kity_path_650" fill="none" stroke="gray"></path></g><path id="node_outline50" fill="none" stroke="none" d="M260.5000142380595,1072.500006608665h326a5,5,0,0,1,5,5v8a5,5,0,0,1,-5,5h-326a5,5,0,0,1,-5,-5v-8a5,5,0,0,1,5,-5z"></path><g id="node_text50" fill="black"><text id="kity_text_318" text-rendering="inherit" font-size="12" dy=".8em" y="1073.700006581843" x="260.5000142380595">提前想好可能会问的问题，每个层次的面试都会有一些常见题</text></g></g><g id="minder_node52"><g id="node_expander70" style="cursor: pointer;"><path id="kity_path_712" fill="white" stroke="gray" d="M142.50001239031553,1254.5000091865659A6,6,0,1,1,130.50001239031553,1254.5000091865659A6,6,0,1,1,142.50001239031553,1254.5000091865659"></path><path id="kity_path_713" fill="none" stroke="gray" d="M132.00001239031553,1254.5000091865659L141.00001239031553,1254.5000091865659"></path></g><path id="node_outline71" fill="rgb(238, 243, 246)" stroke="rgb(115, 161, 191)" d="M146.50001279264688,1241.5000091865659h119a3,3,0,0,1,3,3v20a3,3,0,0,1,-3,3h-119a3,3,0,0,1,-3,-3v-20a3,3,0,0,1,3,-3z" stroke-width="1"></path><g id="node_text71" fill="black"><text id="kity_text_361" text-rendering="inherit" font-size="14" dy=".8em" y="1245.4000091552734" x="163.50001279264688">问题汇总回答</text></g></g><g id="minder_node53"><g id="node_expander52" style="cursor: pointer;"><path id="kity_path_658" fill="white" stroke="gray" d="M284.5000145062804,1115.5000071153045A6,6,0,1,1,272.5000145062804,1115.5000071153045A6,6,0,1,1,284.5000145062804,1115.5000071153045"></path><path id="kity_path_659" fill="none" stroke="gray" d="M274.0000145062804,1115.5000071153045L283.0000145062804,1115.5000071153045"></path></g><path id="node_outline53" fill="none" stroke="none" d="M289.5000146701932,1106.5000071153045h109a5,5,0,0,1,5,5v8a5,5,0,0,1,-5,5h-109a5,5,0,0,1,-5,-5v-8a5,5,0,0,1,5,-5z"></path><g id="node_text53" fill="black"><text id="kity_text_324" text-rendering="inherit" font-size="12" dy=".8em" y="1107.7000070884824" x="289.5000146701932">项目经验如何体现？</text></g></g><g id="minder_node54"><g id="node_expander51" display="none" style="cursor: pointer;"><path id="kity_path_655" fill="white" stroke="gray" d="M419.5000165179372,1115.5000071153045A6,6,0,1,1,407.5000165179372,1115.5000071153045A6,6,0,1,1,419.5000165179372,1115.5000071153045"></path><path id="kity_path_656" fill="none" stroke="gray"></path></g><path id="node_outline52" fill="none" stroke="none" d="M424.50001668184996,1106.5000071153045h241a5,5,0,0,1,5,5v8a5,5,0,0,1,-5,5h-241a5,5,0,0,1,-5,-5v-8a5,5,0,0,1,5,-5z"></path><g id="node_text52" fill="black"><text id="kity_text_322" text-rendering="inherit" font-size="12" dy=".8em" y="1107.7000070884824" x="424.50001668184996">绝不是做了多少项目（技术运用，做事方式）</text></g></g><g id="minder_node55"><g id="node_expander58" style="cursor: pointer;"><path id="kity_path_676" fill="white" stroke="gray" d="M284.5000145062804,1180.50000808388A6,6,0,1,1,272.5000145062804,1180.50000808388A6,6,0,1,1,284.5000145062804,1180.50000808388"></path><path id="kity_path_677" fill="none" stroke="gray" d="M274.0000145062804,1180.50000808388L283.0000145062804,1180.50000808388"></path></g><path id="node_outline59" fill="none" stroke="none" d="M289.5000146701932,1171.50000808388h122a5,5,0,0,1,5,5v8a5,5,0,0,1,-5,5h-122a5,5,0,0,1,-5,-5v-8a5,5,0,0,1,5,-5z"></path><g id="node_text59" fill="black"><text id="kity_text_336" text-rendering="inherit" font-size="12" dy=".8em" y="1172.7000080570579" x="289.5000146701932">终面应该注意什么问题</text></g></g><g id="minder_node56"><g id="node_expander53" display="none" style="cursor: pointer;"><path id="kity_path_661" fill="white" stroke="gray" d="M432.5000167116523,1141.5000075027347A6,6,0,1,1,420.5000167116523,1141.5000075027347A6,6,0,1,1,432.5000167116523,1141.5000075027347"></path><path id="kity_path_662" fill="none" stroke="gray"></path></g><path id="node_outline54" fill="none" stroke="none" d="M437.50001687556505,1132.5000075027347h74a5,5,0,0,1,5,5v8a5,5,0,0,1,-5,5h-74a5,5,0,0,1,-5,-5v-8a5,5,0,0,1,5,-5z"></path><g id="node_text54" fill="black"><text id="kity_text_326" text-rendering="inherit" font-size="12" dy=".8em" y="1133.7000074759126" x="437.50001687556505">价值观，加班</text></g></g><g id="minder_node57"><g id="node_expander56" style="cursor: pointer;"><path id="kity_path_670" fill="white" stroke="gray" d="M432.5000167116523,1180.50000808388A6,6,0,1,1,420.5000167116523,1180.50000808388A6,6,0,1,1,432.5000167116523,1180.50000808388"></path><path id="kity_path_671" fill="none" stroke="gray" d="M422.0000167116523,1180.50000808388L431.0000167116523,1180.50000808388"></path></g><path id="node_outline57" fill="none" stroke="none" d="M437.50001687556505,1171.50000808388h25a5,5,0,0,1,5,5v8a5,5,0,0,1,-5,5h-25a5,5,0,0,1,-5,-5v-8a5,5,0,0,1,5,-5z"></path><g id="node_text57" fill="black"><text id="kity_text_332" text-rendering="inherit" font-size="12" dy=".8em" y="1172.7000080570579" x="437.50001687556505">工资</text></g></g><g id="minder_node58"><g id="node_expander54" display="none" style="cursor: pointer;"><path id="kity_path_664" fill="white" stroke="gray" d="M483.5000174716115,1167.5000078901649A6,6,0,1,1,471.5000174716115,1167.5000078901649A6,6,0,1,1,483.5000174716115,1167.5000078901649"></path><path id="kity_path_665" fill="none" stroke="gray"></path></g><path id="node_outline55" fill="none" stroke="none" d="M488.5000176355243,1158.5000078901649h74a5,5,0,0,1,5,5v8a5,5,0,0,1,-5,5h-74a5,5,0,0,1,-5,-5v-8a5,5,0,0,1,5,-5z"></path><g id="node_text55" fill="black"><text id="kity_text_328" text-rendering="inherit" font-size="12" dy=".8em" y="1159.7000078633428" x="488.5000176355243">试探是否急缺</text></g></g><g id="minder_node59"><g id="node_expander55" display="none" style="cursor: pointer;"><path id="kity_path_667" fill="white" stroke="gray" d="M483.5000174716115,1193.500008277595A6,6,0,1,1,471.5000174716115,1193.500008277595A6,6,0,1,1,483.5000174716115,1193.500008277595"></path><path id="kity_path_668" fill="none" stroke="gray"></path></g><path id="node_outline56" fill="none" stroke="none" d="M488.5000176355243,1184.500008277595h86a5,5,0,0,1,5,5v8a5,5,0,0,1,-5,5h-86a5,5,0,0,1,-5,-5v-8a5,5,0,0,1,5,-5z"></path><g id="node_text56" fill="black"><text id="kity_text_330" text-rendering="inherit" font-size="12" dy=".8em" y="1185.700008250773" x="488.5000176355243">不要太处于下风</text></g></g><g id="minder_node60"><g id="node_expander57" display="none" style="cursor: pointer;"><path id="kity_path_673" fill="white" stroke="gray" d="M432.5000167116523,1219.5000086650252A6,6,0,1,1,420.5000167116523,1219.5000086650252A6,6,0,1,1,432.5000167116523,1219.5000086650252"></path><path id="kity_path_674" fill="none" stroke="gray"></path></g><path id="node_outline58" fill="none" stroke="none" d="M437.50001687556505,1210.5000086650252h204a5,5,0,0,1,5,5v8a5,5,0,0,1,-5,5h-204a5,5,0,0,1,-5,-5v-8a5,5,0,0,1,5,-5z"></path><g id="node_text58" fill="black"><text id="kity_text_334" text-rendering="inherit" font-size="12" dy=".8em" y="1211.7000086382031" x="437.50001687556505">准备一个重要问题：最后要问面试官的</text></g></g><g id="minder_node61"><g id="node_expander60" style="cursor: pointer;"><path id="kity_path_682" fill="white" stroke="gray" d="M284.5000145062804,1254.5000091865659A6,6,0,1,1,272.5000145062804,1254.5000091865659A6,6,0,1,1,284.5000145062804,1254.5000091865659"></path><path id="kity_path_683" fill="none" stroke="gray" d="M274.0000145062804,1254.5000091865659L283.0000145062804,1254.5000091865659"></path></g><path id="node_outline61" fill="none" stroke="none" d="M289.5000146701932,1245.5000091865659h241a5,5,0,0,1,5,5v8a5,5,0,0,1,-5,5h-241a5,5,0,0,1,-5,-5v-8a5,5,0,0,1,5,-5z"></path><g id="node_text61" fill="black"><text id="kity_text_341" text-rendering="inherit" font-size="12" dy=".8em" y="1246.7000091597438" x="289.5000146701932">感觉自己能力不差，学习能力强，过不了面试</text></g></g><g id="minder_node62"><g id="node_expander59" display="none" style="cursor: pointer;"><path id="kity_path_679" fill="white" stroke="gray" d="M551.5000184848905,1254.5000091865659A6,6,0,1,1,539.5000184848905,1254.5000091865659A6,6,0,1,1,551.5000184848905,1254.5000091865659"></path><path id="kity_path_680" fill="none" stroke="gray"></path></g><path id="node_outline60" fill="none" stroke="none" d="M556.5000186488032,1236.5000091865659h145a5,5,0,0,1,5,5v26a5,5,0,0,1,-5,5h-145a5,5,0,0,1,-5,-5v-26a5,5,0,0,1,5,-5z"></path><g id="node_text60" fill="black"><text id="kity_text_338" text-rendering="inherit" font-size="12" dy=".8em" y="1237.7000091597438" x="556.5000186488032">证明给面试官你怎么不差？</text><text id="kity_text_339" text-rendering="inherit" font-size="12" dy=".8em" y="1255.7000091597438" x="556.5000186488032">不要靠感觉</text></g></g><g id="minder_node63"><g id="node_expander62" style="cursor: pointer;"><path id="kity_path_688" fill="white" stroke="gray" d="M284.5000145062804,1289.5000097081065A6,6,0,1,1,272.5000145062804,1289.5000097081065A6,6,0,1,1,284.5000145062804,1289.5000097081065"></path><path id="kity_path_689" fill="none" stroke="gray" d="M274.0000145062804,1289.5000097081065L283.0000145062804,1289.5000097081065"></path></g><path id="node_outline63" fill="none" stroke="none" d="M289.5000146701932,1280.5000097081065h204a5,5,0,0,1,5,5v8a5,5,0,0,1,-5,5h-204a5,5,0,0,1,-5,-5v-8a5,5,0,0,1,5,-5z"></path><g id="node_text63" fill="black"><text id="kity_text_345" text-rendering="inherit" font-size="12" dy=".8em" y="1281.7000096812844" x="289.5000146701932">面试时候选人不合适，是否当面告知？</text></g></g><g id="minder_node64"><g id="node_expander61" display="none" style="cursor: pointer;"><path id="kity_path_685" fill="white" stroke="gray" d="M514.5000179335475,1289.5000097081065A6,6,0,1,1,502.5000179335475,1289.5000097081065A6,6,0,1,1,514.5000179335475,1289.5000097081065"></path><path id="kity_path_686" fill="none" stroke="gray"></path></g><path id="node_outline62" fill="none" stroke="none" d="M519.5000180974603,1280.5000097081065h446a5,5,0,0,1,5,5v8a5,5,0,0,1,-5,5h-446a5,5,0,0,1,-5,-5v-8a5,5,0,0,1,5,-5z"></path><g id="node_text62" fill="black"><text id="kity_text_343" text-rendering="inherit" font-size="12" dy=".8em" y="1281.7000096812844" x="519.5000180974603">一般比较差的会，或者心情好的时候会，但是会给予指导，不过这完全看面试官风格</text></g></g><g id="minder_node65"><g id="node_expander65" style="cursor: pointer;"><path id="kity_path_697" fill="white" stroke="gray" d="M284.5000145062804,1328.5000102892518A6,6,0,1,1,272.5000145062804,1328.5000102892518A6,6,0,1,1,284.5000145062804,1328.5000102892518"></path><path id="kity_path_698" fill="none" stroke="gray" d="M274.0000145062804,1328.5000102892518L283.0000145062804,1328.5000102892518"></path></g><path id="node_outline66" fill="none" stroke="none" d="M289.5000146701932,1319.5000102892518h205a5,5,0,0,1,5,5v8a5,5,0,0,1,-5,5h-205a5,5,0,0,1,-5,-5v-8a5,5,0,0,1,5,-5z"></path><g id="node_text66" fill="black"><text id="kity_text_351" text-rendering="inherit" font-size="12" dy=".8em" y="1320.7000102624297" x="289.5000146701932">自己以后有什么打算的问题，如何回答</text></g></g><g id="minder_node66"><g id="node_expander63" display="none" style="cursor: pointer;"><path id="kity_path_691" fill="white" stroke="gray" d="M515.5000179484487,1315.5000100955367A6,6,0,1,1,503.50001794844866,1315.5000100955367A6,6,0,1,1,515.5000179484487,1315.5000100955367"></path><path id="kity_path_692" fill="none" stroke="gray"></path></g><path id="node_outline64" fill="none" stroke="none" d="M520.5000181123614,1306.5000100955367h84a5,5,0,0,1,5,5v8a5,5,0,0,1,-5,5h-84a5,5,0,0,1,-5,-5v-8a5,5,0,0,1,5,-5z"></path><g id="node_text64" fill="black"><text id="kity_text_347" text-rendering="inherit" font-size="12" dy=".8em" y="1307.7000100687146" x="520.5000181123614">工程师成长方向</text></g></g><g id="minder_node67"><g id="node_expander64" display="none" style="cursor: pointer;"><path id="kity_path_694" fill="white" stroke="gray" d="M515.5000179484487,1341.500010482967A6,6,0,1,1,503.50001794844866,1341.500010482967A6,6,0,1,1,515.5000179484487,1341.500010482967"></path><path id="kity_path_695" fill="none" stroke="gray"></path></g><path id="node_outline65" fill="none" stroke="none" d="M520.5000181123614,1332.500010482967h48a5,5,0,0,1,5,5v8a5,5,0,0,1,-5,5h-48a5,5,0,0,1,-5,-5v-8a5,5,0,0,1,5,-5z"></path><g id="node_text65" fill="black"><text id="kity_text_349" text-rendering="inherit" font-size="12" dy=".8em" y="1333.7000104561448" x="520.5000181123614">自我规划</text></g></g><g id="minder_node68"><g id="node_expander69" style="cursor: pointer;"><path id="kity_path_709" fill="white" stroke="gray" d="M284.5000145062804,1393.5000112578273A6,6,0,1,1,272.5000145062804,1393.5000112578273A6,6,0,1,1,284.5000145062804,1393.5000112578273"></path><path id="kity_path_710" fill="none" stroke="gray" d="M274.0000145062804,1393.5000112578273L283.0000145062804,1393.5000112578273"></path></g><path id="node_outline70" fill="none" stroke="none" d="M289.5000146701932,1384.5000112578273h109a5,5,0,0,1,5,5v8a5,5,0,0,1,-5,5h-109a5,5,0,0,1,-5,-5v-8a5,5,0,0,1,5,-5z"></path><g id="node_text70" fill="black"><text id="kity_text_359" text-rendering="inherit" font-size="12" dy=".8em" y="1385.7000112310052" x="289.5000146701932">实习生没有项目经验</text></g></g><g id="minder_node69"><g id="node_expander66" display="none" style="cursor: pointer;"><path id="kity_path_700" fill="white" stroke="gray" d="M419.5000165179372,1367.500010870397A6,6,0,1,1,407.5000165179372,1367.500010870397A6,6,0,1,1,419.5000165179372,1367.500010870397"></path><path id="kity_path_701" fill="none" stroke="gray"></path></g><path id="node_outline67" fill="none" stroke="none" d="M424.50001668184996,1358.500010870397h49a5,5,0,0,1,5,5v8a5,5,0,0,1,-5,5h-49a5,5,0,0,1,-5,-5v-8a5,5,0,0,1,5,-5z"></path><g id="node_text67" fill="black"><text id="kity_text_353" text-rendering="inherit" font-size="12" dy=".8em" y="1359.700010843575" x="424.50001668184996">打好基础</text></g></g><g id="minder_node70"><g id="node_expander67" display="none" style="cursor: pointer;"><path id="kity_path_703" fill="white" stroke="gray" d="M419.5000165179372,1393.5000112578273A6,6,0,1,1,407.5000165179372,1393.5000112578273A6,6,0,1,1,419.5000165179372,1393.5000112578273"></path><path id="kity_path_704" fill="none" stroke="gray"></path></g><path id="node_outline68" fill="none" stroke="none" d="M424.50001668184996,1384.5000112578273h97a5,5,0,0,1,5,5v8a5,5,0,0,1,-5,5h-97a5,5,0,0,1,-5,-5v-8a5,5,0,0,1,5,-5z"></path><g id="node_text68" fill="black"><text id="kity_text_355" text-rendering="inherit" font-size="12" dy=".8em" y="1385.7000112310052" x="424.50001668184996">了解社区解决方案</text></g></g><g id="minder_node71"><g id="node_expander68" display="none" style="cursor: pointer;"><path id="kity_path_706" fill="white" stroke="gray" d="M419.5000165179372,1419.5000116452575A6,6,0,1,1,407.5000165179372,1419.5000116452575A6,6,0,1,1,419.5000165179372,1419.5000116452575"></path><path id="kity_path_707" fill="none" stroke="gray"></path></g><path id="node_outline69" fill="none" stroke="none" d="M424.50001668184996,1410.5000116452575h49a5,5,0,0,1,5,5v8a5,5,0,0,1,-5,5h-49a5,5,0,0,1,-5,-5v-8a5,5,0,0,1,5,-5z"></path><g id="node_text69" fill="black"><text id="kity_text_357" text-rendering="inherit" font-size="12" dy=".8em" y="1411.7000116184354" x="424.50001668184996">自我实践</text></g></g><g id="minder_node72"><g id="node_expander87" style="cursor: pointer;"><path id="kity_path_763" fill="white" stroke="gray" d="M142.50001239031553,1602.50001437217A6,6,0,1,1,130.50001239031553,1602.50001437217A6,6,0,1,1,142.50001239031553,1602.50001437217"></path><path id="kity_path_764" fill="none" stroke="gray" d="M132.00001239031553,1602.50001437217L141.00001239031553,1602.50001437217"></path></g><path id="node_outline88" fill="rgb(238, 243, 246)" stroke="rgb(115, 161, 191)" d="M146.50001279264688,1589.50001437217h134a3,3,0,0,1,3,3v20a3,3,0,0,1,-3,3h-134a3,3,0,0,1,-3,-3v-20a3,3,0,0,1,3,-3z" stroke-width="1"></path><g id="node_text88" fill="black"><text id="kity_text_395" text-rendering="inherit" font-size="14" dy=".8em" y="1593.4000143408775" x="163.50001279264688">基础面试题实战</text></g></g><g id="minder_node73"><g id="node_expander75" style="cursor: pointer;"><path id="kity_path_727" fill="white" stroke="gray" d="M299.50001472979784,1492.5000127330422A6,6,0,1,1,287.50001472979784,1492.5000127330422A6,6,0,1,1,299.50001472979784,1492.5000127330422"></path><path id="kity_path_728" fill="none" stroke="gray" d="M289.00001472979784,1492.5000127330422L298.00001472979784,1492.5000127330422"></path></g><path id="node_outline76" fill="none" stroke="none" d="M304.5000148937106,1483.5000127330422h10a5,5,0,0,1,5,5v8a5,5,0,0,1,-5,5h-10a5,5,0,0,1,-5,-5v-8a5,5,0,0,1,5,-5z"></path><g id="node_text76" fill="black"><text id="kity_text_371" text-rendering="inherit" font-size="12" dy=".8em" y="1484.7000127062201" x="304.5000148937106">js</text></g></g><g id="minder_node74"><g id="node_expander71" display="none" style="cursor: pointer;"><path id="kity_path_715" fill="white" stroke="gray" d="M335.50001526623964,1453.500012151897A6,6,0,1,1,323.50001526623964,1453.500012151897A6,6,0,1,1,335.50001526623964,1453.500012151897"></path><path id="kity_path_716" fill="none" stroke="gray"></path></g><path id="node_outline72" fill="none" stroke="none" d="M340.5000154301524,1444.500012151897h141a5,5,0,0,1,5,5v8a5,5,0,0,1,-5,5h-141a5,5,0,0,1,-5,-5v-8a5,5,0,0,1,5,-5z"></path><g id="node_text72" fill="black"><text id="kity_text_363" text-rendering="inherit" font-size="12" dy=".8em" y="1445.7000121250749" x="340.5000154301524">ES6的特性介绍，越多越好</text></g></g><g id="minder_node75"><g id="node_expander72" display="none" style="cursor: pointer;"><path id="kity_path_718" fill="white" stroke="gray" d="M335.50001526623964,1479.5000125393271A6,6,0,1,1,323.50001526623964,1479.5000125393271A6,6,0,1,1,335.50001526623964,1479.5000125393271"></path><path id="kity_path_719" fill="none" stroke="gray"></path></g><path id="node_outline73" fill="none" stroke="none" d="M340.5000154301524,1470.5000125393271h25a5,5,0,0,1,5,5v8a5,5,0,0,1,-5,5h-25a5,5,0,0,1,-5,-5v-8a5,5,0,0,1,5,-5z"></path><g id="node_text73" fill="black"><text id="kity_text_365" text-rendering="inherit" font-size="12" dy=".8em" y="1471.700012512505" x="340.5000154301524">正则</text></g></g><g id="minder_node76"><g id="node_expander73" display="none" style="cursor: pointer;"><path id="kity_path_721" fill="white" stroke="gray" d="M335.50001526623964,1505.5000129267573A6,6,0,1,1,323.50001526623964,1505.5000129267573A6,6,0,1,1,335.50001526623964,1505.5000129267573"></path><path id="kity_path_722" fill="none" stroke="gray"></path></g><path id="node_outline74" fill="none" stroke="none" d="M340.5000154301524,1496.5000129267573h73a5,5,0,0,1,5,5v8a5,5,0,0,1,-5,5h-73a5,5,0,0,1,-5,-5v-8a5,5,0,0,1,5,-5z"></path><g id="node_text74" fill="black"><text id="kity_text_367" text-rendering="inherit" font-size="12" dy=".8em" y="1497.7000128999352" x="340.5000154301524">闭包和作用域</text></g></g><g id="minder_node77"><g id="node_expander74" display="none" style="cursor: pointer;"><path id="kity_path_724" fill="white" stroke="gray" d="M335.50001526623964,1531.5000133141875A6,6,0,1,1,323.50001526623964,1531.5000133141875A6,6,0,1,1,335.50001526623964,1531.5000133141875"></path><path id="kity_path_725" fill="none" stroke="gray"></path></g><path id="node_outline75" fill="none" stroke="none" d="M340.5000154301524,1522.5000133141875h49a5,5,0,0,1,5,5v8a5,5,0,0,1,-5,5h-49a5,5,0,0,1,-5,-5v-8a5,5,0,0,1,5,-5z"></path><g id="node_text75" fill="black"><text id="kity_text_369" text-rendering="inherit" font-size="12" dy=".8em" y="1523.7000132873654" x="340.5000154301524">递归遍历</text></g></g><g id="minder_node78"><g id="node_expander80" style="cursor: pointer;"><path id="kity_path_742" fill="white" stroke="gray" d="M299.50001472979784,1596.500014282763A6,6,0,1,1,287.50001472979784,1596.500014282763A6,6,0,1,1,299.50001472979784,1596.500014282763"></path><path id="kity_path_743" fill="none" stroke="gray" d="M289.00001472979784,1596.500014282763L298.00001472979784,1596.500014282763"></path></g><path id="node_outline81" fill="none" stroke="none" d="M304.5000148937106,1587.500014282763h17a5,5,0,0,1,5,5v8a5,5,0,0,1,-5,5h-17a5,5,0,0,1,-5,-5v-8a5,5,0,0,1,5,-5z"></path><g id="node_text81" fill="black"><text id="kity_text_381" text-rendering="inherit" font-size="12" dy=".8em" y="1588.700014255941" x="304.5000148937106">css</text></g></g><g id="minder_node79"><g id="node_expander76" display="none" style="cursor: pointer;"><path id="kity_path_730" fill="white" stroke="gray" d="M342.50001537054777,1557.5000137016177A6,6,0,1,1,330.50001537054777,1557.5000137016177A6,6,0,1,1,342.50001537054777,1557.5000137016177"></path><path id="kity_path_731" fill="none" stroke="gray"></path></g><path id="node_outline77" fill="none" stroke="none" d="M347.50001553446054,1548.5000137016177h38a5,5,0,0,1,5,5v8a5,5,0,0,1,-5,5h-38a5,5,0,0,1,-5,-5v-8a5,5,0,0,1,5,-5z"></path><g id="node_text77" fill="black"><text id="kity_text_373" text-rendering="inherit" font-size="12" dy=".8em" y="1549.7000136747956" x="347.50001553446054">盒模型</text></g></g><g id="minder_node80"><g id="node_expander77" display="none" style="cursor: pointer;"><path id="kity_path_733" fill="white" stroke="gray" d="M342.50001537054777,1583.500014089048A6,6,0,1,1,330.50001537054777,1583.500014089048A6,6,0,1,1,342.50001537054777,1583.500014089048"></path><path id="kity_path_734" fill="none" stroke="gray"></path></g><path id="node_outline78" fill="none" stroke="none" d="M347.50001553446054,1574.500014089048h24a5,5,0,0,1,5,5v8a5,5,0,0,1,-5,5h-24a5,5,0,0,1,-5,-5v-8a5,5,0,0,1,5,-5z"></path><g id="node_text78" fill="black"><text id="kity_text_375" text-rendering="inherit" font-size="12" dy=".8em" y="1575.7000140622258" x="347.50001553446054">动画</text></g></g><g id="minder_node81"><g id="node_expander78" display="none" style="cursor: pointer;"><path id="kity_path_736" fill="white" stroke="gray" d="M342.50001537054777,1609.500014476478A6,6,0,1,1,330.50001537054777,1609.500014476478A6,6,0,1,1,342.50001537054777,1609.500014476478"></path><path id="kity_path_737" fill="none" stroke="gray"></path></g><path id="node_outline79" fill="none" stroke="none" d="M347.50001553446054,1600.500014476478h25a5,5,0,0,1,5,5v8a5,5,0,0,1,-5,5h-25a5,5,0,0,1,-5,-5v-8a5,5,0,0,1,5,-5z"></path><g id="node_text79" fill="black"><text id="kity_text_377" text-rendering="inherit" font-size="12" dy=".8em" y="1601.700014449656" x="347.50001553446054">浮动</text></g></g><g id="minder_node82"><g id="node_expander79" display="none" style="cursor: pointer;"><path id="kity_path_739" fill="white" stroke="gray" d="M342.50001537054777,1635.5000148639083A6,6,0,1,1,330.50001537054777,1635.5000148639083A6,6,0,1,1,342.50001537054777,1635.5000148639083"></path><path id="kity_path_740" fill="none" stroke="gray"></path></g><path id="node_outline80" fill="none" stroke="none" d="M347.50001553446054,1626.5000148639083h42a5,5,0,0,1,5,5v8a5,5,0,0,1,-5,5h-42a5,5,0,0,1,-5,-5v-8a5,5,0,0,1,5,-5z"></path><g id="node_text80" fill="black"><text id="kity_text_379" text-rendering="inherit" font-size="12" dy=".8em" y="1627.7000148370862" x="347.50001553446054">flexbox</text></g></g><g id="minder_node83"><g id="node_expander86" style="cursor: pointer;"><path id="kity_path_760" fill="white" stroke="gray" d="M299.50001472979784,1713.5000160261989A6,6,0,1,1,287.50001472979784,1713.5000160261989A6,6,0,1,1,299.50001472979784,1713.5000160261989"></path><path id="kity_path_761" fill="none" stroke="gray" d="M289.00001472979784,1713.5000160261989L298.00001472979784,1713.5000160261989"></path></g><path id="node_outline87" fill="none" stroke="none" d="M304.5000148937106,1704.5000160261989h38a5,5,0,0,1,5,5v8a5,5,0,0,1,-5,5h-38a5,5,0,0,1,-5,-5v-8a5,5,0,0,1,5,-5z"></path><g id="node_text87" fill="black"><text id="kity_text_393" text-rendering="inherit" font-size="12" dy=".8em" y="1705.7000159993768" x="304.5000148937106">泛化题</text></g></g><g id="minder_node84"><g id="node_expander81" display="none" style="cursor: pointer;"><path id="kity_path_745" fill="white" stroke="gray" d="M363.50001568347216,1661.5000152513385A6,6,0,1,1,351.50001568347216,1661.5000152513385A6,6,0,1,1,363.50001568347216,1661.5000152513385"></path><path id="kity_path_746" fill="none" stroke="gray"></path></g><path id="node_outline82" fill="none" stroke="none" d="M368.50001584738493,1652.5000152513385h158a5,5,0,0,1,5,5v8a5,5,0,0,1,-5,5h-158a5,5,0,0,1,-5,-5v-8a5,5,0,0,1,5,-5z"></path><g id="node_text82" fill="black"><text id="kity_text_383" text-rendering="inherit" font-size="12" dy=".8em" y="1653.7000152245164" x="368.50001584738493">列举常见的 http status code</text></g></g><g id="minder_node85"><g id="node_expander82" display="none" style="cursor: pointer;"><path id="kity_path_748" fill="white" stroke="gray" d="M363.50001568347216,1687.5000156387687A6,6,0,1,1,351.50001568347216,1687.5000156387687A6,6,0,1,1,363.50001568347216,1687.5000156387687"></path><path id="kity_path_749" fill="none" stroke="gray"></path></g><path id="node_outline83" fill="none" stroke="none" d="M368.50001584738493,1678.5000156387687h169a5,5,0,0,1,5,5v8a5,5,0,0,1,-5,5h-169a5,5,0,0,1,-5,-5v-8a5,5,0,0,1,5,-5z"></path><g id="node_text83" fill="black"><text id="kity_text_385" text-rendering="inherit" font-size="12" dy=".8em" y="1679.7000156119466" x="368.50001584738493">浏览器发起请求之后发生了什么</text></g></g><g id="minder_node86"><g id="node_expander83" display="none" style="cursor: pointer;"><path id="kity_path_751" fill="white" stroke="gray" d="M363.50001568347216,1713.5000160261989A6,6,0,1,1,351.50001568347216,1713.5000160261989A6,6,0,1,1,363.50001568347216,1713.5000160261989"></path><path id="kity_path_752" fill="none" stroke="gray"></path></g><path id="node_outline84" fill="none" stroke="none" d="M368.50001584738493,1704.5000160261989h161a5,5,0,0,1,5,5v8a5,5,0,0,1,-5,5h-161a5,5,0,0,1,-5,-5v-8a5,5,0,0,1,5,-5z"></path><g id="node_text84" fill="black"><text id="kity_text_387" text-rendering="inherit" font-size="12" dy=".8em" y="1705.7000159993768" x="368.50001584738493">客户端和内嵌之H5如何通信？</text></g></g><g id="minder_node87"><g id="node_expander84" display="none" style="cursor: pointer;"><path id="kity_path_754" fill="white" stroke="gray" d="M363.50001568347216,1739.500016413629A6,6,0,1,1,351.50001568347216,1739.500016413629A6,6,0,1,1,363.50001568347216,1739.500016413629"></path><path id="kity_path_755" fill="none" stroke="gray"></path></g><path id="node_outline85" fill="none" stroke="none" d="M368.50001584738493,1730.500016413629h121a5,5,0,0,1,5,5v8a5,5,0,0,1,-5,5h-121a5,5,0,0,1,-5,-5v-8a5,5,0,0,1,5,-5z"></path><g id="node_text85" fill="black"><text id="kity_text_389" text-rendering="inherit" font-size="12" dy=".8em" y="1731.700016386807" x="368.50001584738493">跨域，有何解决之法？</text></g></g><g id="minder_node88"><g id="node_expander85" display="none" style="cursor: pointer;"><path id="kity_path_757" fill="white" stroke="gray" d="M363.50001568347216,1765.5000168010592A6,6,0,1,1,351.50001568347216,1765.5000168010592A6,6,0,1,1,363.50001568347216,1765.5000168010592"></path><path id="kity_path_758" fill="none" stroke="gray"></path></g><path id="node_outline86" fill="none" stroke="none" d="M368.50001584738493,1756.5000168010592h263a5,5,0,0,1,5,5v8a5,5,0,0,1,-5,5h-263a5,5,0,0,1,-5,-5v-8a5,5,0,0,1,5,-5z"></path><g id="node_text86" fill="black"><text id="kity_text_391" text-rendering="inherit" font-size="12" dy=".8em" y="1757.7000167742372" x="368.50001584738493">mvvm具体是怎样一个分层？详述每个层及其角色</text></g></g><g id="minder_node89"><g id="node_expander91" style="cursor: pointer;"><path id="kity_path_775" fill="white" stroke="gray" d="M142.50001239031553,1840.5000179186463A6,6,0,1,1,130.50001239031553,1840.5000179186463A6,6,0,1,1,142.50001239031553,1840.5000179186463"></path><path id="kity_path_776" fill="none" stroke="gray" d="M132.00001239031553,1840.5000179186463L141.00001239031553,1840.5000179186463"></path></g><path id="node_outline92" fill="rgb(238, 243, 246)" stroke="rgb(115, 161, 191)" d="M146.50001279264688,1827.5000179186463h91a3,3,0,0,1,3,3v20a3,3,0,0,1,-3,3h-91a3,3,0,0,1,-3,-3v-20a3,3,0,0,1,3,-3z" stroke-width="1"></path><g id="node_text92" fill="black"><text id="kity_text_403" text-rendering="inherit" font-size="14" dy=".8em" y="1831.400017887354" x="163.50001279264688">参考资料</text></g></g><g id="minder_node90"><g id="node_expander88" display="none" style="cursor: pointer;"><path id="kity_path_766" fill="white" stroke="gray" d="M256.5000140890479,1804.5000173822045A6,6,0,1,1,244.5000140890479,1804.5000173822045A6,6,0,1,1,256.5000140890479,1804.5000173822045"></path><path id="kity_path_767" fill="none" stroke="gray"></path></g><path id="node_outline89" fill="none" stroke="none" d="M261.5000142529607,1790.5000173822045h453a5,5,0,0,1,5,5v18a5,5,0,0,1,-5,5h-453a5,5,0,0,1,-5,-5v-18a5,5,0,0,1,5,-5z"></path><g id="node_text89" fill="black"><text id="kity_text_397" text-rendering="inherit" font-size="12" dy=".8em" y="1796.7000173553824" x="261.5000142529607">http://www.html-js.com/article/Large-search-front-team-column%202961</text></g><a id="kity_a_404" xmlns:xlink="http://www.w3.org/1999/xlink" xlink:href="http://www.html-js.com/article/Large-search-front-team-column%202961" target="_blank" xlink:title="http://www.html-js.com/article/Large-search-front-team-column%202961" style="cursor: pointer;"><path id="kity_path_406" fill="rgba(255, 255, 255, 0)" stroke="none" d="M694.5000206753612,1793.5000173076987h16a4,4,0,0,1,4,4v14a4,4,0,0,1,-4,4h-16a4,4,0,0,1,-4,-4v-14a4,4,0,0,1,4,-4z"></path><path id="kity_path_405" fill="#666" stroke="none" d="M709.1140206753612,1809.7240173076987h-1.278c-1.668,0,-3.07,-1.07,-3.599,-2.556h4.877c0.707,0,1.278,-0.571,1.278,-1.278V1803.3340173076988c0,-0.707,-0.571,-1.278,-1.278,-1.278h-4.877C704.7660206753611,1800.5710173076986,706.1680206753612,1799.5000173076987,707.8360206753612,1799.5000173076987h1.278c2.116,0,3.834,1.716,3.834,3.834V1805.8900173076988C712.9480206753611,1808.0080173076988,711.2300206753612,1809.7240173076987,709.1140206753612,1809.7240173076987zM697.6120206753611,1804.6120173076988c0,-0.707,0.573,-1.278,1.278,-1.278h7.668c0.707,0,1.278,0.571,1.278,1.278S707.2650206753611,1805.8900173076988,706.5580206753611,1805.8900173076988H698.8900206753611C698.1850206753611,1805.8900173076988,697.6120206753611,1805.3190173076987,697.6120206753611,1804.6120173076988zM695.0560206753612,1803.3340173076988V1805.8900173076988c0,0.707,0.573,1.278,1.278,1.278h4.877c-0.528,1.486,-1.932,2.556,-3.599,2.556H696.3340206753611C694.2160206753612,1809.7240173076987,692.5000206753612,1808.0080173076988,692.5000206753612,1805.8900173076988V1803.3340173076988C692.5000206753612,1801.2160173076986,694.2160206753612,1799.5000173076987,696.3340206753611,1799.5000173076987h1.278c1.667,0,3.071,1.071,3.599,2.556H696.3340206753611C695.6290206753612,1802.0560173076988,695.0560206753612,1802.6270173076987,695.0560206753612,1803.3340173076988z"></path></a></g><g id="minder_node91"><g id="node_expander89" display="none" style="cursor: pointer;"><path id="kity_path_769" fill="white" stroke="gray" d="M256.5000140890479,1840.5000179186463A6,6,0,1,1,244.5000140890479,1840.5000179186463A6,6,0,1,1,256.5000140890479,1840.5000179186463"></path><path id="kity_path_770" fill="none" stroke="gray"></path></g><path id="node_outline90" fill="none" stroke="none" d="M261.5000142529607,1826.5000179186463h260a5,5,0,0,1,5,5v18a5,5,0,0,1,-5,5h-260a5,5,0,0,1,-5,-5v-18a5,5,0,0,1,5,-5z"></path><g id="node_text90" fill="black"><text id="kity_text_399" text-rendering="inherit" font-size="12" dy=".8em" y="1832.7000178918242" x="261.5000142529607">https://zhuanlan.zhihu.com/p/21707924</text></g><a id="kity_a_407" xmlns:xlink="http://www.w3.org/1999/xlink" xlink:href="https://zhuanlan.zhihu.com/p/21707924" target="_blank" xlink:title="https://zhuanlan.zhihu.com/p/21707924" style="cursor: pointer;"><path id="kity_path_409" fill="rgba(255, 255, 255, 0)" stroke="none" d="M501.50001779943705,1829.5000178441405h16a4,4,0,0,1,4,4v14a4,4,0,0,1,-4,4h-16a4,4,0,0,1,-4,-4v-14a4,4,0,0,1,4,-4z"></path><path id="kity_path_408" fill="#666" stroke="none" d="M516.1140177994371,1845.7240178441405h-1.278c-1.668,0,-3.07,-1.07,-3.599,-2.556h4.877c0.707,0,1.278,-0.571,1.278,-1.278V1839.3340178441406c0,-0.707,-0.571,-1.278,-1.278,-1.278h-4.877C511.76601779943707,1836.5710178441404,513.168017799437,1835.5000178441405,514.8360177994371,1835.5000178441405h1.278c2.116,0,3.834,1.716,3.834,3.834V1841.8900178441406C519.948017799437,1844.0080178441406,518.2300177994371,1845.7240178441405,516.1140177994371,1845.7240178441405zM504.61201779943707,1840.6120178441406c0,-0.707,0.573,-1.278,1.278,-1.278h7.668c0.707,0,1.278,0.571,1.278,1.278S514.265017799437,1841.8900178441406,513.558017799437,1841.8900178441406H505.89001779943703C505.18501779943705,1841.8900178441406,504.61201779943707,1841.3190178441405,504.61201779943707,1840.6120178441406zM502.05601779943703,1839.3340178441406V1841.8900178441406c0,0.707,0.573,1.278,1.278,1.278h4.877c-0.528,1.486,-1.932,2.556,-3.599,2.556H503.33401779943705C501.21601779943705,1845.7240178441405,499.50001779943705,1844.0080178441406,499.50001779943705,1841.8900178441406V1839.3340178441406C499.50001779943705,1837.2160178441404,501.21601779943705,1835.5000178441405,503.33401779943705,1835.5000178441405h1.278c1.667,0,3.071,1.071,3.599,2.556H503.33401779943705C502.62901779943707,1838.0560178441406,502.05601779943703,1838.6270178441405,502.05601779943703,1839.3340178441406z"></path></a></g><g id="minder_node92"><g id="node_expander90" display="none" style="cursor: pointer;"><path id="kity_path_772" fill="white" stroke="gray" d="M256.5000140890479,1876.5000184550881A6,6,0,1,1,244.5000140890479,1876.5000184550881A6,6,0,1,1,256.5000140890479,1876.5000184550881"></path><path id="kity_path_773" fill="none" stroke="gray"></path></g><path id="node_outline91" fill="none" stroke="none" d="M261.5000142529607,1862.5000184550881h334a5,5,0,0,1,5,5v18a5,5,0,0,1,-5,5h-334a5,5,0,0,1,-5,-5v-18a5,5,0,0,1,5,-5z"></path><g id="node_text91" fill="black"><text id="kity_text_401" text-rendering="inherit" font-size="12" dy=".8em" y="1868.700018428266" x="261.5000142529607">我的小密圈：http://t.cn/Ri2cBT0 （全栈团队养成日记）</text></g><a id="kity_a_410" xmlns:xlink="http://www.w3.org/1999/xlink" xlink:href="http://link.zhihu.com/?target=http%3A//t.cn/Ri2cBT0" target="_blank" xlink:title="http://link.zhihu.com/?target=http%3A//t.cn/Ri2cBT0" style="cursor: pointer;"><path id="kity_path_412" fill="rgba(255, 255, 255, 0)" stroke="none" d="M575.500018902123,1865.5000183805823h16a4,4,0,0,1,4,4v14a4,4,0,0,1,-4,4h-16a4,4,0,0,1,-4,-4v-14a4,4,0,0,1,4,-4z"></path><path id="kity_path_411" fill="#666" stroke="none" d="M590.114018902123,1881.7240183805823h-1.278c-1.668,0,-3.07,-1.07,-3.599,-2.556h4.877c0.707,0,1.278,-0.571,1.278,-1.278V1875.3340183805824c0,-0.707,-0.571,-1.278,-1.278,-1.278h-4.877C585.7660189021229,1872.5710183805822,587.168018902123,1871.5000183805823,588.836018902123,1871.5000183805823h1.278c2.116,0,3.834,1.716,3.834,3.834V1877.8900183805824C593.948018902123,1880.0080183805824,592.230018902123,1881.7240183805823,590.114018902123,1881.7240183805823zM578.6120189021229,1876.6120183805824c0,-0.707,0.573,-1.278,1.278,-1.278h7.668c0.707,0,1.278,0.571,1.278,1.278S588.265018902123,1877.8900183805824,587.558018902123,1877.8900183805824H579.890018902123C579.1850189021229,1877.8900183805824,578.6120189021229,1877.3190183805823,578.6120189021229,1876.6120183805824zM576.056018902123,1875.3340183805824V1877.8900183805824c0,0.707,0.573,1.278,1.278,1.278h4.877c-0.528,1.486,-1.932,2.556,-3.599,2.556H577.3340189021229C575.216018902123,1881.7240183805823,573.500018902123,1880.0080183805824,573.500018902123,1877.8900183805824V1875.3340183805824C573.500018902123,1873.2160183805822,575.216018902123,1871.5000183805823,577.3340189021229,1871.5000183805823h1.278c1.667,0,3.071,1.071,3.599,2.556H577.3340189021229C576.629018902123,1874.0560183805824,576.056018902123,1874.6270183805823,576.056018902123,1875.3340183805824z"></path></a></g></g></g></svg>